<svg width="27" height="28" viewBox="0 0 27 28" fill="none" xmlns="http://www.w3.org/2000/svg">
<g clip-path="url(#clip0)">
<path d="M25.3832 1.64382C22.7124 -1.07252 18.7243 -0.410025 13.4998 3.58897C8.27644 -0.410025 4.28944 -1.07366 1.61644 1.64382C-1.05656 4.36131 -0.402932 8.41638 3.52894 13.7301C-0.402932 19.0426 -1.05543 23.0988 1.61644 25.8163C2.1174 26.3446 2.71939 26.7631 3.38533 27.0458C4.05128 27.3286 4.7671 27.4697 5.48869 27.4605C7.70607 27.4605 10.3836 26.2568 13.4998 23.8723C16.6149 26.2568 19.2924 27.4605 21.5109 27.4605C22.2325 27.4697 22.9484 27.3286 23.6143 27.0458C24.2802 26.7631 24.8822 26.3446 25.3832 25.8163C28.0551 23.0988 27.4082 19.0438 23.4707 13.7301C27.4026 8.41638 28.0551 4.36131 25.3832 1.64382ZM21.4704 2.32005C21.9004 2.30688 22.3284 2.38322 22.7283 2.54436C23.1282 2.70551 23.4914 2.94807 23.7958 3.25715C25.7601 5.25608 24.3088 8.6498 22.0093 11.8833C21.0666 10.7528 20.0046 9.57775 18.7941 8.34544C17.5836 7.11313 16.4248 6.033 15.3133 5.07301C17.4486 3.50201 19.6558 2.32005 21.4704 2.32005ZM20.5997 13.7301C19.4623 15.126 18.2574 16.4315 17.2067 17.5059C16.1559 18.5804 14.8723 19.7944 13.4998 20.9512C12.1273 19.7944 10.8437 18.5689 9.79294 17.5059C8.74219 16.443 7.53732 15.126 6.39994 13.7301C7.53732 12.3341 8.74219 11.0275 9.79294 9.95991C10.8437 8.89237 12.1273 7.66578 13.4998 6.50784C14.8723 7.66349 16.1559 8.89122 17.2123 9.95991C18.2687 11.0286 19.4623 12.3341 20.5997 13.7301ZM3.20382 3.2583C3.50787 2.94868 3.87106 2.70569 4.271 2.54432C4.67094 2.38295 5.09914 2.30663 5.52919 2.32005C7.34382 2.32005 9.55107 3.50201 11.6863 5.07301C10.5748 6.033 9.41832 7.11313 8.20557 8.34544C6.99282 9.57775 5.93307 10.7483 4.98919 11.8833C2.69082 8.6498 1.23732 5.25608 3.20382 3.2583ZM3.20382 24.1973C1.23957 22.1995 2.69082 18.8046 4.98919 15.5722C5.93307 16.7027 6.99507 17.8778 8.20557 19.1101C9.41607 20.3424 10.5681 21.4249 11.6807 22.3837C8.50257 24.7247 5.16582 26.2019 3.20382 24.2018V24.1973ZM23.7913 24.1973C21.8282 26.1928 18.4926 24.7202 15.3144 22.3837C16.4237 21.4249 17.5802 20.339 18.7896 19.1101C19.9989 17.8812 21.0621 16.7073 22.0048 15.5722C24.3088 18.8103 25.7623 22.2041 23.7958 24.2018L23.7913 24.1973Z" fill="#E30A0A"/>
<path d="M13.5 16.0189C14.7426 16.0189 15.75 14.9943 15.75 13.7305C15.75 12.4666 14.7426 11.4421 13.5 11.4421C12.2574 11.4421 11.25 12.4666 11.25 13.7305C11.25 14.9943 12.2574 16.0189 13.5 16.0189Z" fill="#E30A0A"/>
</g>
<defs>
<clipPath id="clip0">
<rect width="27" height="27.4609" fill="white"/>
</clipPath>
</defs>
</svg>
