<svg width="27" height="27" viewBox="0 0 27 27" fill="none" xmlns="http://www.w3.org/2000/svg">
<g clip-path="url(#clip0)">
<path d="M13.5 0C10.83 0 8.21987 0.791761 5.99981 2.27516C3.77974 3.75856 2.04942 5.86697 1.02763 8.33377C0.00584936 10.8006 -0.261496 13.515 0.259405 16.1337C0.780305 18.7525 2.06606 21.1579 3.95406 23.0459C5.84207 24.934 8.24754 26.2197 10.8663 26.7406C13.485 27.2615 16.1994 26.9942 18.6662 25.9724C21.133 24.9506 23.2414 23.2203 24.7248 21.0002C26.2082 18.7801 27 16.17 27 13.5C26.9961 9.92077 25.5726 6.48924 23.0417 3.95833C20.5108 1.42743 17.0792 0.00387122 13.5 0V0ZM24.75 13.5C24.7513 15.7047 24.1008 17.8605 22.8803 19.6965L21.5393 18.3544C21.4341 18.249 21.375 18.1061 21.375 17.9573V16.875C21.375 15.9799 21.0194 15.1214 20.3865 14.4885C19.7536 13.8556 18.8951 13.5 18 13.5H14.625C14.3266 13.5 14.0405 13.3815 13.8295 13.1705C13.6185 12.9595 13.5 12.6734 13.5 12.375V11.8125C13.5 11.6633 13.5593 11.5202 13.6648 11.4148C13.7702 11.3093 13.9133 11.25 14.0625 11.25C14.8084 11.25 15.5238 10.9537 16.0512 10.4262C16.5787 9.89879 16.875 9.18342 16.875 8.4375V7.3125C16.875 7.16332 16.9343 7.02024 17.0398 6.91475C17.1452 6.80926 17.2883 6.75 17.4375 6.75H18.9889C19.7341 6.74788 20.4484 6.45198 20.9768 5.9265L21.4009 5.50237C22.462 6.54646 23.3046 7.79135 23.8796 9.16444C24.4546 10.5375 24.7505 12.0114 24.75 13.5ZM2.30513 14.5834L5.85788 18.1361C6.17052 18.4508 6.54253 18.7002 6.95233 18.87C7.36213 19.0397 7.80157 19.1264 8.24513 19.125H11.25C11.5484 19.125 11.8345 19.2435 12.0455 19.4545C12.2565 19.6655 12.375 19.9516 12.375 20.25V24.6926C9.78772 24.4285 7.37145 23.2776 5.53605 21.435C3.70065 19.5924 2.55913 17.1717 2.30513 14.5834ZM14.625 24.6926V20.25C14.625 19.3549 14.2694 18.4964 13.6365 17.8635C13.0036 17.2306 12.1451 16.875 11.25 16.875H8.24513C8.09722 16.8751 7.95073 16.8461 7.81406 16.7895C7.67738 16.7329 7.55321 16.65 7.44863 16.5454L2.43338 11.5301C2.75533 9.69998 3.52659 7.97838 4.67795 6.5198C5.82932 5.06123 7.32478 3.9113 9.03015 3.17319C10.7355 2.43508 12.5975 2.13189 14.4489 2.29082C16.3003 2.44974 18.0834 3.06581 19.638 4.08375L19.386 4.33575C19.2801 4.44018 19.1376 4.49912 18.9889 4.5H17.4375C16.6916 4.5 15.9762 4.79632 15.4488 5.32376C14.9213 5.85121 14.625 6.56658 14.625 7.3125V8.4375C14.625 8.58668 14.5657 8.72976 14.4603 8.83525C14.3548 8.94074 14.2117 9 14.0625 9C13.3166 9 12.6012 9.29632 12.0738 9.82376C11.5463 10.3512 11.25 11.0666 11.25 11.8125V12.375C11.25 13.2701 11.6056 14.1286 12.2385 14.7615C12.8715 15.3944 13.7299 15.75 14.625 15.75H18C18.2984 15.75 18.5845 15.8685 18.7955 16.0795C19.0065 16.2905 19.125 16.5766 19.125 16.875V17.9573C19.1271 18.7024 19.423 19.4167 19.9485 19.9451L21.4526 21.4492C19.6205 23.2877 17.2076 24.4339 14.625 24.6926Z" fill="#E30A0A"/>
</g>
<defs>
<clipPath id="clip0">
<rect width="27" height="27" fill="white"/>
</clipPath>
</defs>
</svg>
