<svg width="27" height="28" viewBox="0 0 27 28" fill="none" xmlns="http://www.w3.org/2000/svg">
<g clip-path="url(#clip0)">
<path d="M21.375 6.86609H16.1111C15.6627 6.54104 15.1588 6.30359 14.625 6.16584V5.72189L18.5963 3.83166C18.7591 3.72904 18.8934 3.58585 18.9866 3.41566C19.0797 3.24546 19.1286 3.05388 19.1286 2.85909C19.1286 2.66429 19.0797 2.47272 18.9866 2.30252C18.8934 2.13232 18.7591 1.98913 18.5963 1.88651L14.9963 0.170203C14.7152 0.0366187 14.4055 -0.0225772 14.0959 -0.00189062C13.7863 0.018796 13.4869 0.118695 13.2254 0.288532C12.9639 0.45837 12.7489 0.692642 12.6002 0.969602C12.4515 1.24656 12.3741 1.55723 12.375 1.87278V6.16584C11.8415 6.30339 11.3379 6.54087 10.89 6.86609H5.625C4.13371 6.86791 2.704 7.47124 1.6495 8.54375C0.594992 9.61626 0.00178634 11.0704 0 12.5871L0 24.0292C0 24.9396 0.355579 25.8127 0.988515 26.4564C1.62145 27.1001 2.47989 27.4618 3.375 27.4618H23.625C24.5201 27.4618 25.3786 27.1001 26.0115 26.4564C26.6444 25.8127 27 24.9396 27 24.0292V12.5871C26.9982 11.0704 26.405 9.61626 25.3505 8.54375C24.296 7.47124 22.8663 6.86791 21.375 6.86609ZM24.543 11.4429H22.1141C21.2195 11.4406 20.362 11.0791 19.728 10.4372L18.4657 9.15451H21.375C22.0705 9.15744 22.7482 9.37887 23.3153 9.7885C23.8824 10.1981 24.3112 10.776 24.543 11.4429ZM5.625 9.15451H8.53425L7.272 10.4372C6.63803 11.0791 5.78049 11.4406 4.88587 11.4429H2.457C2.68884 10.776 3.11764 10.1981 3.68471 9.7885C4.25179 9.37887 4.92946 9.15744 5.625 9.15451ZM14.625 25.1734H12.375V21.7408C12.375 21.4373 12.4935 21.1463 12.7045 20.9317C12.9155 20.7171 13.2016 20.5966 13.5 20.5966C13.7984 20.5966 14.0845 20.7171 14.2955 20.9317C14.5065 21.1463 14.625 21.4373 14.625 21.7408V25.1734ZM23.625 25.1734H16.875V21.7408C16.875 20.8304 16.5194 19.9573 15.8865 19.3135C15.2536 18.6698 14.3951 18.3082 13.5 18.3082C12.6049 18.3082 11.7464 18.6698 11.1135 19.3135C10.4806 19.9573 10.125 20.8304 10.125 21.7408V25.1734H3.375C3.07663 25.1734 2.79048 25.0528 2.5795 24.8383C2.36853 24.6237 2.25 24.3326 2.25 24.0292V13.7313H4.88587C5.62479 13.7332 6.35674 13.586 7.03936 13.2982C7.72198 13.0105 8.34173 12.588 8.86275 12.0551L11.9093 8.9577C12.3312 8.52869 12.9034 8.28769 13.5 8.28769C14.0966 8.28769 14.6688 8.52869 15.0907 8.9577L18.1372 12.0551C18.6583 12.588 19.278 13.0105 19.9606 13.2982C20.6433 13.586 21.3752 13.7332 22.1141 13.7313H24.75V24.0292C24.75 24.3326 24.6315 24.6237 24.4205 24.8383C24.2095 25.0528 23.9234 25.1734 23.625 25.1734ZM7.875 17.1639C7.875 17.4674 7.75647 17.7584 7.5455 17.973C7.33452 18.1876 7.04837 18.3082 6.75 18.3082H5.625C5.32663 18.3082 5.04048 18.1876 4.8295 17.973C4.61853 17.7584 4.5 17.4674 4.5 17.1639C4.5 16.8605 4.61853 16.5695 4.8295 16.3549C5.04048 16.1403 5.32663 16.0197 5.625 16.0197H6.75C7.04837 16.0197 7.33452 16.1403 7.5455 16.3549C7.75647 16.5695 7.875 16.8605 7.875 17.1639ZM7.875 21.7408C7.875 22.0442 7.75647 22.3353 7.5455 22.5498C7.33452 22.7644 7.04837 22.885 6.75 22.885H5.625C5.32663 22.885 5.04048 22.7644 4.8295 22.5498C4.61853 22.3353 4.5 22.0442 4.5 21.7408C4.5 21.4373 4.61853 21.1463 4.8295 20.9317C5.04048 20.7171 5.32663 20.5966 5.625 20.5966H6.75C7.04837 20.5966 7.33452 20.7171 7.5455 20.9317C7.75647 21.1463 7.875 21.4373 7.875 21.7408ZM22.5 17.1639C22.5 17.4674 22.3815 17.7584 22.1705 17.973C21.9595 18.1876 21.6734 18.3082 21.375 18.3082H20.25C19.9516 18.3082 19.6655 18.1876 19.4545 17.973C19.2435 17.7584 19.125 17.4674 19.125 17.1639C19.125 16.8605 19.2435 16.5695 19.4545 16.3549C19.6655 16.1403 19.9516 16.0197 20.25 16.0197H21.375C21.6734 16.0197 21.9595 16.1403 22.1705 16.3549C22.3815 16.5695 22.5 16.8605 22.5 17.1639ZM22.5 21.7408C22.5 22.0442 22.3815 22.3353 22.1705 22.5498C21.9595 22.7644 21.6734 22.885 21.375 22.885H20.25C19.9516 22.885 19.6655 22.7644 19.4545 22.5498C19.2435 22.3353 19.125 22.0442 19.125 21.7408C19.125 21.4373 19.2435 21.1463 19.4545 20.9317C19.6655 20.7171 19.9516 20.5966 20.25 20.5966H21.375C21.6734 20.5966 21.9595 20.7171 22.1705 20.9317C22.3815 21.1463 22.5 21.4373 22.5 21.7408ZM15.75 13.7313C15.75 14.1839 15.618 14.6264 15.3708 15.0027C15.1236 15.379 14.7722 15.6723 14.361 15.8455C13.9499 16.0187 13.4975 16.0641 13.061 15.9758C12.6246 15.8875 12.2237 15.6695 11.909 15.3495C11.5943 15.0294 11.38 14.6217 11.2932 14.1778C11.2064 13.7339 11.251 13.2737 11.4213 12.8556C11.5916 12.4374 11.88 12.08 12.25 11.8286C12.62 11.5771 13.055 11.4429 13.5 11.4429C14.0967 11.4429 14.669 11.684 15.091 12.1132C15.5129 12.5423 15.75 13.1244 15.75 13.7313Z" fill="#E30A0A"/>
</g>
<defs>
<clipPath id="clip0">
<rect width="27" height="27.4609" fill="white"/>
</clipPath>
</defs>
</svg>
