<svg width="27" height="27" viewBox="0 0 27 27" fill="none" xmlns="http://www.w3.org/2000/svg">
<path d="M16.9774 18C24.3686 17.9595 27 14.0445 27 10.6875C26.9993 9.78756 26.6903 8.91501 26.1245 8.21516C25.5588 7.5153 24.7703 7.03038 23.8905 6.84113C24.0435 6.40575 24.1763 6.00638 24.2651 5.70375C24.4615 5.04557 24.5001 4.35037 24.3777 3.6745C24.2554 2.99862 23.9755 2.36107 23.5609 1.8135C23.1428 1.24862 22.5977 0.790102 21.9695 0.475046C21.3414 0.15999 20.6479 -0.00274765 19.9451 3.79957e-06H7.05487C6.35214 -0.00274765 5.65863 0.15999 5.03047 0.475046C4.40232 0.790102 3.85716 1.24862 3.43912 1.8135C3.02446 2.36107 2.74461 2.99862 2.62226 3.6745C2.49991 4.35037 2.53849 5.04557 2.73487 5.70375C2.82375 6.00638 2.95987 6.40575 3.1095 6.84113C2.22968 7.03038 1.44123 7.5153 0.87545 8.21516C0.309671 8.91501 0.000704565 9.78756 0 10.6875C0 14.0445 2.63138 17.9595 10.0226 18C10.0883 18.3415 10.1226 18.6884 10.125 19.0361V22.5C10.1443 22.8005 10.0994 23.1017 9.99314 23.3834C9.88691 23.6651 9.72183 23.921 9.50891 24.1339C9.296 24.3468 9.04014 24.5119 8.75839 24.6181C8.47664 24.7244 8.17549 24.7693 7.875 24.75H6.75C6.45163 24.75 6.16548 24.8685 5.9545 25.0795C5.74353 25.2905 5.625 25.5766 5.625 25.875C5.625 26.1734 5.74353 26.4595 5.9545 26.6705C6.16548 26.8815 6.45163 27 6.75 27H20.25C20.5484 27 20.8345 26.8815 21.0455 26.6705C21.2565 26.4595 21.375 26.1734 21.375 25.875C21.375 25.5766 21.2565 25.2905 21.0455 25.0795C20.8345 24.8685 20.5484 24.75 20.25 24.75H19.134C18.8329 24.7703 18.5309 24.7261 18.2482 24.6203C17.9655 24.5146 17.7087 24.3497 17.4949 24.1367C17.281 23.9237 17.1151 23.6675 17.0082 23.3853C16.9013 23.103 16.8559 22.8012 16.875 22.5V19.035C16.8775 18.6876 16.9117 18.3412 16.9774 18ZM23.0625 9C23.5101 9 23.9393 9.17779 24.2557 9.49426C24.5722 9.81073 24.75 10.24 24.75 10.6875C24.75 12.9758 22.9399 15.4125 17.9595 15.7163C18.2086 15.3763 18.4963 15.0663 18.8167 14.7926C20.61 13.1771 22.0392 11.1987 23.0096 8.98875C23.0276 8.98988 23.0434 9 23.0625 9ZM2.25 10.6875C2.25 10.24 2.42779 9.81073 2.74426 9.49426C3.06072 9.17779 3.48995 9 3.9375 9C3.95662 9 3.97237 8.98988 3.99038 8.98875C4.96075 11.1987 6.38998 13.1771 8.18325 14.7926C8.50373 15.0663 8.7914 15.3763 9.0405 15.7163C4.06013 15.4125 2.25 12.9758 2.25 10.6875ZM11.8271 24.75C12.1991 24.0592 12.3877 23.2845 12.375 22.5V19.0361C12.3789 17.9042 12.1363 16.785 11.664 15.7563C11.1917 14.7276 10.5011 13.8141 9.64013 13.0793C7.35247 10.8929 5.71009 8.11952 4.89262 5.0625C4.79656 4.73983 4.77808 4.39902 4.83869 4.06785C4.89929 3.73667 5.03727 3.4245 5.24137 3.15675C5.45124 2.87384 5.72477 2.64433 6.03984 2.4868C6.3549 2.32927 6.70263 2.24815 7.05487 2.25H19.9451C20.2978 2.24867 20.6457 2.33048 20.9608 2.48881C21.2759 2.64713 21.5492 2.87751 21.7586 3.16125C21.9627 3.429 22.1007 3.74117 22.1613 4.07235C22.2219 4.40352 22.2034 4.74433 22.1074 5.067C21.2891 8.12241 19.6468 10.8941 17.3599 13.0793C16.4989 13.8139 15.8083 14.7272 15.336 15.7557C14.8637 16.7842 14.6211 17.9032 14.625 19.035V22.5C14.6123 23.2845 14.8009 24.0592 15.1729 24.75H11.8271Z" fill="#E30A0A"/>
</svg>
