<svg width="28" height="28" viewBox="0 0 28 28" fill="none" xmlns="http://www.w3.org/2000/svg">
<path d="M21.5921 4.59479H20.3421C20.0783 3.31223 19.3805 2.15981 18.3661 1.33178C17.3518 0.503746 16.083 0.0507252 14.7736 0.0490723L12.5007 0.0490723C11.1913 0.0507252 9.92252 0.503746 8.90818 1.33178C7.89384 2.15981 7.19598 3.31223 6.93222 4.59479H5.68214C4.1757 4.59659 2.73147 5.19582 1.66625 6.26104C0.601037 7.32626 0.00180449 8.77049 0 10.2769L0 21.6412C0.00180449 23.1477 0.601037 24.5919 1.66625 25.6571C2.73147 26.7223 4.1757 27.3216 5.68214 27.3234H21.5921C23.0986 27.3216 24.5428 26.7223 25.608 25.6571C26.6733 24.5919 27.2725 23.1477 27.2743 21.6412V10.2769C27.2725 8.77049 26.6733 7.32626 25.608 6.26104C24.5428 5.19582 23.0986 4.59659 21.5921 4.59479ZM12.5007 2.32193H14.7736C15.4762 2.32484 16.1607 2.54477 16.7336 2.95161C17.3064 3.35846 17.7396 3.93235 17.9738 4.59479H9.30053C9.53473 3.93235 9.96788 3.35846 10.5407 2.95161C11.1136 2.54477 11.7981 2.32484 12.5007 2.32193ZM5.68214 6.86765H21.5921C22.4963 6.86765 23.3635 7.22684 24.0029 7.8662C24.6422 8.50557 25.0014 9.37273 25.0014 10.2769V13.6862H2.27286V10.2769C2.27286 9.37273 2.63205 8.50557 3.27141 7.8662C3.91078 7.22684 4.77795 6.86765 5.68214 6.86765ZM21.5921 25.0505H5.68214C4.77795 25.0505 3.91078 24.6913 3.27141 24.052C2.63205 23.4126 2.27286 22.5454 2.27286 21.6412V15.9591H12.5007V17.0955C12.5007 17.3969 12.6204 17.686 12.8336 17.8991C13.0467 18.1122 13.3357 18.2319 13.6371 18.2319C13.9385 18.2319 14.2276 18.1122 14.4407 17.8991C14.6538 17.686 14.7736 17.3969 14.7736 17.0955V15.9591H25.0014V21.6412C25.0014 22.5454 24.6422 23.4126 24.0029 24.052C23.3635 24.6913 22.4963 25.0505 21.5921 25.0505Z" fill="#E30A0A"/>
</svg>
