<svg width="22" height="28" viewBox="0 0 22 28" fill="none" xmlns="http://www.w3.org/2000/svg">
<path d="M19.9479 25.0801H18.8114V23.1993C18.809 22.5901 18.6846 21.9875 18.4455 21.4271C18.2064 20.8667 17.8575 20.3599 17.4193 19.9366C15.2328 17.824 14.3407 15.4034 14.2759 11.4407H15.3987C15.7001 11.4407 15.9892 11.321 16.2023 11.1078C16.4154 10.8947 16.5352 10.6057 16.5352 10.3043C16.5352 10.0029 16.4154 9.71381 16.2023 9.50069C15.9892 9.28756 15.7001 9.16783 15.3987 9.16783H14.7669C15.1764 8.48012 15.3946 7.69539 15.3987 6.89498C15.3987 5.33239 14.0782 2.67087 13.2475 1.36057C12.9905 0.958893 12.6366 0.628346 12.2184 0.399385C11.8001 0.170425 11.331 0.050415 10.8541 0.050415C10.3773 0.050415 9.90817 0.170425 9.48992 0.399385C9.07166 0.628346 8.71776 0.958893 8.46083 1.36057C7.62896 2.67201 6.30843 5.33807 6.30843 6.89611C6.31314 7.69645 6.53126 8.48104 6.94028 9.16897H6.31184C6.01044 9.16897 5.72138 9.2887 5.50826 9.50182C5.29514 9.71494 5.17541 10.004 5.17541 10.3054C5.17541 10.6068 5.29514 10.8959 5.50826 11.109C5.72138 11.3221 6.01044 11.4418 6.31184 11.4418H7.43577C7.36985 15.4046 6.47662 17.824 4.2924 19.9366C3.85504 20.3602 3.50678 20.8669 3.2681 21.427C3.02942 21.9872 2.90513 22.5893 2.90255 23.1982V25.079H1.76612C1.46472 25.079 1.17567 25.1987 0.962544 25.4118C0.749423 25.625 0.629692 25.914 0.629692 26.2154C0.629692 26.5168 0.749423 26.8059 0.962544 27.019C1.17567 27.2321 1.46472 27.3518 1.76612 27.3518H19.949C20.2504 27.3518 20.5394 27.2321 20.7526 27.019C20.9657 26.8059 21.0854 26.5168 21.0854 26.2154C21.0854 25.914 20.9657 25.625 20.7526 25.4118C20.5394 25.1987 20.2504 25.079 19.949 25.079L19.9479 25.0801ZM10.3825 2.57882C10.4343 2.50028 10.5047 2.43582 10.5875 2.39122C10.6703 2.34661 10.7629 2.32326 10.857 2.32326C10.951 2.32326 11.0436 2.34661 11.1264 2.39122C11.2092 2.43582 11.2797 2.50028 11.3314 2.57882C12.2032 3.88908 12.8137 5.35543 13.1293 6.89725C13.1293 7.50005 12.8898 8.07816 12.4636 8.5044C12.0373 8.93065 11.4592 9.17011 10.8564 9.17011C10.2536 9.17011 9.67551 8.93065 9.24926 8.5044C8.82302 8.07816 8.58356 7.50005 8.58356 6.89725C8.89993 5.35583 9.51075 3.88994 10.3825 2.57996V2.57882ZM12.0076 11.443C12.069 15.4386 12.9168 18.2059 14.8737 20.5344H6.84028C8.79494 18.2059 9.64499 15.4375 9.70749 11.443H12.0076ZM5.17541 23.1993C5.17709 23.0677 5.19079 22.9364 5.21632 22.8073H16.4988C16.5234 22.9365 16.5367 23.0677 16.5386 23.1993V25.0801H5.17427L5.17541 23.1993Z" fill="#DF1515"/>
</svg>
