<svg width="28" height="28" viewBox="0 0 28 28" fill="none" xmlns="http://www.w3.org/2000/svg">
<g clip-path="url(#clip0)">
<path d="M25.8092 2.45813C25.1703 1.92393 24.4217 1.53693 23.6164 1.32462C22.8111 1.1123 21.969 1.07988 21.1498 1.22965L16.8064 2.01833C15.8036 2.20248 14.8918 2.7184 14.2176 3.48319C13.5416 2.71708 12.6272 2.20104 11.622 2.01833L7.28538 1.22965C6.46619 1.07975 5.62407 1.11175 4.81862 1.32338C4.01317 1.53501 3.26408 1.9211 2.62439 2.45433C1.98469 2.98755 1.47003 3.65487 1.11682 4.40904C0.763612 5.16322 0.5805 5.98582 0.580444 6.81861L0.580444 19.0841C0.58051 20.4146 1.04749 21.7029 1.89999 22.7245C2.75249 23.746 3.93644 24.436 5.24549 24.6742L12.3891 25.9731C13.5982 26.1928 14.837 26.1928 16.0461 25.9731L23.1954 24.6742C24.5034 24.4348 25.686 23.7443 26.5374 22.7229C27.3887 21.7015 27.8549 20.4138 27.8547 19.0841V6.81861C27.8553 5.98611 27.6722 5.16374 27.3186 4.41005C26.9651 3.65636 26.4497 2.9899 25.8092 2.45813ZM13.0812 23.7832C12.9857 23.7696 12.8902 23.7537 12.7948 23.7366L5.65233 22.4388C4.86679 22.2959 4.15632 21.8818 3.64481 21.2687C3.1333 20.6557 2.85318 19.8825 2.8533 19.0841V6.81861C2.8533 5.91441 3.21249 5.04724 3.85186 4.40788C4.49122 3.76851 5.35839 3.40932 6.26259 3.40932C6.46839 3.40981 6.67374 3.42844 6.87626 3.465L11.2174 4.26051C11.7397 4.35608 12.2121 4.63152 12.5525 5.03901C12.893 5.4465 13.08 5.96033 13.0812 6.49131V23.7832ZM25.5819 19.0841C25.582 19.8825 25.3019 20.6557 24.7904 21.2687C24.2789 21.8818 23.5684 22.2959 22.7829 22.4388L15.6404 23.7366C15.5449 23.7537 15.4495 23.7696 15.354 23.7832V6.49131C15.3539 5.95902 15.5407 5.44359 15.8817 5.03488C16.2227 4.62616 16.6963 4.3501 17.22 4.25482L21.5623 3.45932C22.0541 3.36985 22.5595 3.3896 23.0428 3.51718C23.526 3.64475 23.9754 3.87703 24.3589 4.19755C24.7424 4.51808 25.0508 4.91901 25.2621 5.37196C25.4735 5.8249 25.5826 6.31878 25.5819 6.81861V19.0841Z" fill="#DF1515"/>
</g>
<defs>
<clipPath id="clip0">
<rect width="27.2743" height="27.2743" fill="white" transform="translate(0.580444)"/>
</clipPath>
</defs>
</svg>
