<svg width="28" height="28" viewBox="0 0 28 28" fill="none" xmlns="http://www.w3.org/2000/svg">
<path d="M8.52322 14.7736C7.51178 14.7736 6.52305 14.4736 5.68207 13.9117C4.84109 13.3498 4.18562 12.5511 3.79856 11.6167C3.4115 10.6822 3.31023 9.65397 3.50755 8.66197C3.70487 7.66996 4.19193 6.75875 4.90712 6.04355C5.62232 5.32836 6.53353 4.8413 7.52554 4.64398C8.51754 4.44666 9.54578 4.54793 10.4802 4.93499C11.4147 5.32205 12.2134 5.97752 12.7753 6.8185C13.3372 7.65948 13.6371 8.64821 13.6371 9.65965C13.6356 11.0155 13.0964 12.3154 12.1376 13.2741C11.1789 14.2328 9.87905 14.7721 8.52322 14.7736ZM8.52322 6.81858C7.96131 6.81858 7.41201 6.9852 6.9448 7.29738C6.47759 7.60956 6.11344 8.05328 5.89841 8.57242C5.68337 9.09155 5.62711 9.6628 5.73673 10.2139C5.84636 10.765 6.11694 11.2713 6.51428 11.6686C6.91161 12.0659 7.41784 12.3365 7.96895 12.4461C8.52006 12.5558 9.09131 12.4995 9.61045 12.2845C10.1296 12.0694 10.5733 11.7053 10.8855 11.2381C11.1977 10.7709 11.3643 10.2216 11.3643 9.65965C11.3643 8.90615 11.065 8.18351 10.5322 7.65071C9.99935 7.1179 9.27672 6.81858 8.52322 6.81858ZM17.0464 26.1379V25.5697C17.0464 23.3092 16.1485 21.1412 14.55 19.5428C12.9516 17.9444 10.7837 17.0464 8.52322 17.0464C6.26272 17.0464 4.09481 17.9444 2.49639 19.5428C0.897979 21.1412 0 23.3092 0 25.5697L0 26.1379C0 26.4393 0.119731 26.7283 0.332852 26.9414C0.545974 27.1546 0.835029 27.2743 1.13643 27.2743C1.43783 27.2743 1.72688 27.1546 1.94001 26.9414C2.15313 26.7283 2.27286 26.4393 2.27286 26.1379V25.5697C2.27286 23.912 2.93138 22.3221 4.10355 21.15C5.27571 19.9778 6.86552 19.3193 8.52322 19.3193C10.1809 19.3193 11.7707 19.9778 12.9429 21.15C14.1151 22.3221 14.7736 23.912 14.7736 25.5697V26.1379C14.7736 26.4393 14.8933 26.7283 15.1064 26.9414C15.3195 27.1546 15.6086 27.2743 15.91 27.2743C16.2114 27.2743 16.5005 27.1546 16.7136 26.9414C16.9267 26.7283 17.0464 26.4393 17.0464 26.1379ZM27.2743 20.4557C27.2743 18.92 26.8297 17.4172 25.9943 16.1286C25.159 14.84 23.9685 13.8208 22.5666 13.1939C21.1647 12.567 19.6113 12.3593 18.0939 12.5959C16.5766 12.8324 15.1601 13.5031 14.0156 14.527C13.9028 14.6261 13.8108 14.7465 13.7448 14.8814C13.6789 15.0162 13.6403 15.1628 13.6313 15.3127C13.6224 15.4626 13.6432 15.6127 13.6925 15.7545C13.7419 15.8962 13.8189 16.0268 13.919 16.1387C14.0192 16.2505 14.1405 16.3414 14.276 16.4061C14.4114 16.4708 14.5584 16.508 14.7083 16.5156C14.8582 16.5232 15.0082 16.501 15.1495 16.4503C15.2908 16.3996 15.4207 16.3214 15.5316 16.2203C16.3492 15.4891 17.3609 15.0102 18.4447 14.8414C19.5285 14.6726 20.6379 14.821 21.6392 15.2688C22.6405 15.7167 23.4907 16.4447 24.0873 17.3651C24.6839 18.2855 25.0014 19.3589 25.0014 20.4557C25.0014 20.7571 25.1212 21.0462 25.3343 21.2593C25.5474 21.4724 25.8365 21.5921 26.1379 21.5921C26.4393 21.5921 26.7283 21.4724 26.9414 21.2593C27.1546 21.0462 27.2743 20.7571 27.2743 20.4557ZM19.8875 10.2279C18.8761 10.2279 17.8873 9.92793 17.0464 9.36601C16.2054 8.80408 15.5499 8.0054 15.1628 7.07095C14.7758 6.1365 14.6745 5.10826 14.8718 4.11625C15.0692 3.12425 15.5562 2.21303 16.2714 1.49784C16.9866 0.782642 17.8978 0.295587 18.8898 0.098265C19.8818 -0.0990571 20.9101 0.00221579 21.8445 0.389277C22.779 0.776338 23.5777 1.4318 24.1396 2.27278C24.7015 3.11377 25.0014 4.10249 25.0014 5.11393C24.9999 6.46977 24.4607 7.76964 23.5019 8.72836C22.5432 9.68709 21.2433 10.2264 19.8875 10.2279ZM19.8875 2.27286C19.3256 2.27286 18.7763 2.43949 18.3091 2.75167C17.8419 3.06385 17.4777 3.50756 17.2627 4.0267C17.0477 4.54584 16.9914 5.11708 17.101 5.6682C17.2106 6.21931 17.4812 6.72554 17.8786 7.12287C18.2759 7.5202 18.7821 7.79079 19.3332 7.90041C19.8844 8.01004 20.4556 7.95377 20.9747 7.73874C21.4939 7.52371 21.9376 7.15956 22.2498 6.69235C22.562 6.22513 22.7286 5.67584 22.7286 5.11393C22.7286 4.36043 22.4293 3.63779 21.8964 3.10499C21.3636 2.57219 20.641 2.27286 19.8875 2.27286Z" fill="#DF1515"/>
</svg>
