<svg width="12" height="35" viewBox="0 0 12 35" fill="none" xmlns="http://www.w3.org/2000/svg">
<path d="M0.999791 34.6367C0.80204 34.6367 0.608741 34.5519 0.44433 34.3933C0.27992 34.2346 0.15178 34.0091 0.0761095 33.7453C0.000439124 33.4815 -0.0193642 33.1912 0.0192035 32.9112C0.0577712 32.6311 0.152978 32.3739 0.292788 32.1719L8.46482 20.3721C9.02724 19.5597 9.34318 18.4581 9.34318 17.3095C9.34318 16.1608 9.02724 15.0592 8.46482 14.2469L0.292788 2.44706C0.11063 2.17473 0.00983447 1.80998 0.0121129 1.43139C0.0143913 1.05279 0.119561 0.690637 0.30497 0.422919C0.490379 0.155202 0.741192 0.00334448 1.00339 5.45846e-05C1.26559 -0.00323531 1.51819 0.142305 1.70679 0.40533L9.87883 12.2052C10.815 13.56 11.3407 15.3957 11.3407 17.3095C11.3407 19.2233 10.815 21.059 9.87883 22.4138L1.70679 34.2136C1.5193 34.4845 1.26499 34.6366 0.999791 34.6367Z" fill="black"/>
</svg>
