<svg width="290" height="338" viewBox="0 0 290 338" fill="none" xmlns="http://www.w3.org/2000/svg">
<path d="M145.071 169.74L88.0676 136.036L58.1506 152.238L146.218 202.297L289.529 118.688V84.9845L145.071 169.74Z" fill="white" fill-opacity="0.2"/>
<path d="M145.147 237.987L64.7308 189.686L34.8138 205.812L146.218 270.62L289.529 187.012V153.308L145.147 237.987Z" fill="white" fill-opacity="0.2"/>
<path d="M262.749 36.9893L144.917 104.243L114.847 87.8119L88.0674 101.721L146.218 132.979L289.529 49.4466L262.749 36.9893Z" fill="white" fill-opacity="0.2"/>
<path d="M260.913 236.688L144.764 304.477L28.6927 236.688V101.187L144.764 33.3977L172.922 49.829L201.92 33.3977L144.764 0L0 84.4495V253.425L144.764 337.874L289.529 253.425V219.339L260.913 236.688Z" fill="white" fill-opacity="0.2"/>
</svg>
