<svg width="29" height="29" viewBox="0 0 29 29" fill="none" xmlns="http://www.w3.org/2000/svg">
<path fill-rule="evenodd" clip-rule="evenodd" d="M7.07108 6.92892C6.58292 7.41708 6.58292 8.20853 7.07108 8.69669L12.3744 14L7.07105 19.3033C6.5829 19.7914 6.5829 20.5829 7.07105 21.0711C7.55921 21.5592 8.35066 21.5592 8.83882 21.0711L14.1421 15.7677L19.4454 21.0711C19.9336 21.5592 20.7251 21.5592 21.2132 21.0711C21.7014 20.5829 21.7014 19.7914 21.2132 19.3033L15.9099 14L21.2132 8.69668C21.7013 8.20853 21.7013 7.41707 21.2132 6.92892C20.725 6.44076 19.9336 6.44076 19.4454 6.92892L14.1421 12.2322L8.83885 6.92892C8.35069 6.44077 7.55923 6.44077 7.07108 6.92892Z" fill="black"/>
</svg>
