<svg width="36" height="40" viewBox="0 0 36 40" fill="none" xmlns="http://www.w3.org/2000/svg">
<path d="M25.5132 4.72254C24.2356 3.6364 22.8964 2.49489 21.5328 1.2508C21.016 0.779342 20.4027 0.426914 19.7359 0.218199C19.0691 0.00948324 18.3648 -0.0504729 17.6725 0.0425294C17.0016 0.131429 16.3584 0.367121 15.7884 0.732929C15.2184 1.09874 14.7355 1.58573 14.3738 2.15944C12.4388 5.40318 11.0706 8.95482 10.3285 12.661C10.0373 12.2392 9.77891 11.7955 9.55578 11.3338C9.32601 10.8482 8.97999 10.4272 8.54858 10.1083C8.11717 9.78948 7.6138 9.5827 7.08335 9.50643C6.55291 9.43016 6.01189 9.48678 5.50857 9.67125C5.00524 9.85571 4.55526 10.1623 4.19876 10.5636C1.47586 13.3547 -0.0336138 17.1144 0.000798545 21.0195C-0.0368325 25.0086 1.25652 28.8957 3.67508 32.0624C6.09365 35.2292 9.49849 37.4936 13.3479 38.4954C14.8216 38.8674 16.3347 39.0599 17.8543 39.0686C17.903 39.0686 17.9501 39.0817 17.9988 39.0817C18.2114 39.0817 18.4208 39.0638 18.6302 39.0491C23.2919 38.8976 27.7118 36.9321 30.9539 33.5686C34.196 30.2051 36.0058 25.7079 36 21.0293C35.9935 13.6527 31.1365 9.51653 25.5132 4.72254ZM18.3705 35.7825C18.1855 35.7825 18.0004 35.8021 17.8137 35.8005C16.6055 35.7083 15.4537 35.2506 14.5102 34.488C13.8128 34.0157 13.2233 33.4003 12.7806 32.6826C12.3379 31.9648 12.0521 31.161 11.9421 30.3242C11.6661 27.6829 13.2895 24.2291 16.6059 20.3274C16.7777 20.1261 16.9912 19.9647 17.2314 19.8545C17.4717 19.7443 17.733 19.6878 17.9971 19.6891C18.2578 19.6872 18.5157 19.7432 18.7523 19.853C18.9889 19.9627 19.1983 20.1237 19.3656 20.3242C22.4045 23.9425 24.0733 27.2807 24.0733 29.7249C24.0688 31.2722 23.4773 32.7598 22.419 33.8855C21.3607 35.0112 19.915 35.6906 18.3754 35.7858L18.3705 35.7825ZM27.0489 32.7032C26.9531 32.7781 26.8476 32.8384 26.7502 32.91C27.1248 31.8889 27.3176 30.8097 27.32 29.7217C27.32 25.6067 24.3412 21.197 21.8445 18.2219C21.3725 17.6613 20.7844 17.2106 20.1211 16.9012C19.4577 16.5919 18.7352 16.4313 18.0036 16.4307H17.9971C17.2641 16.4294 16.5395 16.5879 15.8735 16.8952C15.2076 17.2025 14.6161 17.6513 14.1401 18.2105C10.171 22.8743 8.34801 27.0641 8.72138 30.6645C8.81004 31.5003 9.02289 32.3182 9.35286 33.0908C7.45287 31.7098 5.90839 29.8944 4.84746 27.7951C3.78654 25.6958 3.23972 23.3731 3.25235 21.0195C3.23685 19.484 3.52807 17.961 4.10882 16.5403C4.68958 15.1195 5.54811 13.8298 6.63377 12.7473C7.00822 13.5281 7.45786 14.2704 7.97627 14.9635C8.32462 15.4359 8.80329 15.7956 9.35315 15.9982C9.90302 16.2008 10.5 16.2373 11.0704 16.1034C11.6521 15.9743 12.1842 15.6789 12.6022 15.2529C13.0202 14.827 13.3063 14.2887 13.4258 13.7031C14.078 10.245 15.3243 6.92694 17.1092 3.89694C17.2176 3.72588 17.3626 3.58108 17.5335 3.47295C17.7044 3.36482 17.8972 3.29607 18.0978 3.27164C18.3221 3.24136 18.5502 3.26081 18.7662 3.32862C18.9822 3.39643 19.1807 3.51094 19.3478 3.66408C20.7406 4.93423 22.1074 6.10667 23.4061 7.20909C28.8248 11.8256 32.7419 15.1605 32.7419 21.0293C32.7489 23.2827 32.2395 25.5076 31.2533 27.5323C30.267 29.5569 28.8302 31.3272 27.0538 32.7065L27.0489 32.7032Z" fill="#DF1515"/>
</svg>
