<svg width="340" height="76" viewBox="0 0 340 76" fill="none" xmlns="http://www.w3.org/2000/svg">
<path d="M35.3368 39.4854L24.8859 33.3062L19.4009 36.2767L35.5473 45.4544L61.822 30.1255V23.9463L35.3368 39.4854Z" fill="white"/>
<path d="M35.3509 51.9977L20.6073 43.1423L15.1223 46.0988L35.5473 57.9808L61.822 42.6519V36.4727L35.3509 51.9977Z" fill="white"/>
<path d="M56.9121 15.147L35.3088 27.4774L29.7957 24.4648L24.8859 27.015L35.5472 32.7458L61.822 17.4309L56.9121 15.147Z" fill="#DF1515"/>
<path d="M56.5755 51.7598L35.2807 64.1882L14.0001 51.7598V26.9169L35.2807 14.4884L40.4431 17.5009L45.7598 14.4884L35.2807 8.36523L8.7395 23.8483V54.8284L35.2807 70.3114L61.822 54.8284V48.5791L56.5755 51.7598Z" fill="white"/>
<path d="M92.8102 54.0294H90.3693V37.8878H81.2229V54.0294H78.782V35.73H92.7961V54.0294H92.8102Z" fill="#DF1515" stroke="#DF1515" stroke-width="1.1" stroke-miterlimit="10"/>
<path d="M112.239 41.2646C112.239 42.0773 112.099 42.834 111.818 43.5205C111.538 44.2071 111.145 44.8096 110.626 45.3281C109.995 45.9586 109.251 46.435 108.381 46.7433C107.526 47.0515 106.432 47.2197 105.127 47.2197H102.686V54.0434H100.245V35.73H105.211C106.305 35.73 107.245 35.8281 108.003 36.0102C108.76 36.1924 109.448 36.4866 110.037 36.8789C110.738 37.3413 111.271 37.9298 111.65 38.6304C112.029 39.331 112.239 40.1997 112.239 41.2646ZM109.7 41.3207C109.7 40.6902 109.588 40.1437 109.363 39.6673C109.139 39.2049 108.802 38.8266 108.353 38.5183C107.961 38.2661 107.512 38.084 107.007 37.9719C106.502 37.8598 105.87 37.8037 105.099 37.8037H102.686V45.1179H104.734C105.716 45.1179 106.516 45.0338 107.133 44.8517C107.75 44.6695 108.241 44.3893 108.634 44.011C109.013 43.6186 109.293 43.1983 109.448 42.7639C109.602 42.3295 109.7 41.8671 109.7 41.3207Z" fill="#DF1515" stroke="#DF1515" stroke-width="1.1" stroke-miterlimit="10"/>
<path d="M131.626 37.832C132.37 38.6447 132.945 39.6535 133.337 40.8445C133.73 42.0355 133.941 43.3807 133.941 44.8939C133.941 46.4072 133.744 47.7523 133.337 48.9433C132.931 50.1344 132.37 51.1292 131.64 51.9279C130.883 52.7546 129.999 53.3851 128.961 53.7914C127.937 54.2118 126.758 54.422 125.44 54.422C124.149 54.422 122.985 54.2118 121.933 53.7774C120.88 53.3571 119.983 52.7265 119.239 51.9279C118.496 51.1152 117.935 50.1203 117.528 48.9433C117.135 47.7664 116.925 46.4212 116.925 44.8939C116.925 43.4087 117.121 42.0636 117.514 40.8866C117.907 39.6956 118.482 38.6727 119.239 37.832C119.955 37.0333 120.852 36.4168 121.933 35.9824C122.999 35.5621 124.163 35.3379 125.44 35.3379C126.758 35.3379 127.937 35.5481 128.975 35.9824C130.013 36.4308 130.897 37.0333 131.626 37.832ZM131.416 44.8939C131.416 42.5119 130.883 40.6904 129.816 39.3873C128.75 38.0982 127.291 37.4537 125.454 37.4537C123.588 37.4537 122.129 38.0982 121.063 39.3873C119.997 40.6764 119.464 42.5119 119.464 44.8939C119.464 47.29 120.011 49.1395 121.091 50.4006C122.171 51.6616 123.63 52.3062 125.454 52.3062C127.277 52.3062 128.722 51.6757 129.802 50.4006C130.869 49.1255 131.416 47.29 131.416 44.8939Z" fill="#DF1515" stroke="#DF1515" stroke-width="1.1" stroke-miterlimit="10"/>
<path d="M157.213 44.7538C157.213 45.9028 157.031 46.9256 156.666 47.8084C156.302 48.6911 155.797 49.4477 155.151 50.0362C154.45 50.6808 153.608 51.1992 152.598 51.5775C151.602 51.9559 150.536 52.166 149.4 52.1801V54.2258H146.973V52.1801C145.879 52.152 144.812 51.9559 143.816 51.5916C142.806 51.2272 141.951 50.7088 141.235 50.0362C140.59 49.4337 140.085 48.6911 139.72 47.7944C139.356 46.9116 139.173 45.8888 139.173 44.7398C139.173 43.6329 139.356 42.652 139.706 41.8113C140.057 40.9706 140.548 40.242 141.165 39.6255C141.824 38.9669 142.666 38.4345 143.662 38.0562C144.658 37.6638 145.766 37.4677 146.987 37.4256V35.52H149.414V37.4256C150.634 37.4536 151.742 37.6638 152.752 38.0702C153.762 38.4765 154.59 38.9949 155.235 39.6255C155.853 40.228 156.344 40.9566 156.694 41.7973C157.031 42.666 157.213 43.6469 157.213 44.7538ZM146.973 50.2885V39.3452C146.103 39.3593 145.374 39.4713 144.798 39.6955C144.209 39.9197 143.69 40.256 143.213 40.7044C142.736 41.1528 142.372 41.7272 142.105 42.4278C141.839 43.1284 141.698 43.8711 141.698 44.6697C141.698 45.5945 141.839 46.4212 142.105 47.1638C142.386 47.9065 142.778 48.523 143.297 48.9994C143.704 49.3637 144.223 49.6719 144.855 49.9242C145.5 50.1483 146.201 50.2744 146.973 50.2885ZM154.674 44.6557C154.674 43.843 154.548 43.1004 154.281 42.4138C154.015 41.7272 153.65 41.1668 153.159 40.6904C152.682 40.228 152.149 39.8917 151.574 39.6815C150.985 39.4713 150.269 39.3593 149.4 39.3312V50.2744C150.171 50.2604 150.873 50.1343 151.504 49.8961C152.135 49.6579 152.654 49.3497 153.061 48.9713C153.594 48.4809 154.001 47.8784 154.267 47.1638C154.534 46.4632 154.674 45.6225 154.674 44.6557Z" fill="#DF1515" stroke="#DF1515" stroke-width="1.1" stroke-miterlimit="10"/>
<path d="M175.562 54.0294H163.498V35.73H175.562V37.8878H165.925V42.904H175.562V45.0618H165.925V51.8576H175.562V54.0294Z" fill="#DF1515" stroke="#DF1515" stroke-width="1.1" stroke-miterlimit="10"/>
<path d="M196.085 52.6985C195.636 52.8946 195.23 53.0768 194.865 53.2449C194.5 53.4131 194.023 53.5952 193.434 53.7914C192.929 53.9455 192.396 54.0856 191.807 54.1977C191.218 54.3098 190.572 54.3659 189.871 54.3659C188.538 54.3659 187.332 54.1837 186.252 53.8054C185.157 53.4271 184.218 52.8526 183.418 52.0539C182.632 51.2693 182.015 50.2884 181.566 49.0834C181.117 47.8784 180.907 46.4912 180.907 44.8939C180.907 43.3806 181.117 42.0355 181.552 40.8445C181.973 39.6535 182.59 38.6586 183.404 37.8319C184.19 37.0333 185.129 36.4308 186.224 36.0104C187.332 35.5901 188.552 35.3799 189.899 35.3799C190.881 35.3799 191.863 35.492 192.845 35.7302C193.827 35.9684 194.907 36.3887 196.113 36.9772V39.8637H195.931C194.921 39.023 193.925 38.4064 192.929 38.0141C191.933 37.6218 190.881 37.4396 189.745 37.4396C188.819 37.4396 187.977 37.5937 187.234 37.888C186.49 38.1822 185.831 38.6586 185.242 39.2892C184.68 39.9057 184.232 40.6763 183.923 41.6151C183.614 42.5539 183.446 43.6328 183.446 44.8659C183.446 46.155 183.628 47.2619 183.965 48.1867C184.316 49.1114 184.765 49.8681 185.312 50.4426C185.887 51.0451 186.56 51.4935 187.318 51.7877C188.089 52.0819 188.903 52.2221 189.745 52.2221C190.923 52.2221 192.017 52.0259 193.041 51.6196C194.065 51.2132 195.033 50.6107 195.917 49.812H196.085V52.6985Z" fill="#DF1515" stroke="#DF1515" stroke-width="1.1" stroke-miterlimit="10"/>
<path d="M216.216 52.6985C215.767 52.8946 215.36 53.0768 214.995 53.2449C214.631 53.4131 214.154 53.5952 213.564 53.7914C213.059 53.9455 212.526 54.0856 211.937 54.1977C211.348 54.3098 210.703 54.3659 210.001 54.3659C208.669 54.3659 207.462 54.1837 206.382 53.8054C205.288 53.4271 204.348 52.8526 203.548 52.0539C202.763 51.2693 202.146 50.2884 201.697 49.0834C201.248 47.8784 201.037 46.4912 201.037 44.8939C201.037 43.3806 201.248 42.0355 201.683 40.8445C202.103 39.6535 202.721 38.6586 203.534 37.8319C204.32 37.0333 205.26 36.4308 206.354 36.0104C207.462 35.5901 208.683 35.3799 210.029 35.3799C211.011 35.3799 211.993 35.492 212.975 35.7302C213.957 35.9684 215.037 36.3887 216.244 36.9772V39.8637H216.061C215.051 39.023 214.055 38.4064 213.059 38.0141C212.063 37.6218 211.011 37.4396 209.875 37.4396C208.949 37.4396 208.107 37.5937 207.364 37.888C206.621 38.1822 205.961 38.6586 205.372 39.2892C204.811 39.9057 204.362 40.6763 204.053 41.6151C203.745 42.5539 203.576 43.6328 203.576 44.8659C203.576 46.155 203.759 47.2619 204.095 48.1867C204.446 49.1114 204.895 49.8681 205.442 50.4426C206.017 51.0451 206.691 51.4935 207.448 51.7877C208.22 52.0819 209.033 52.2221 209.875 52.2221C211.053 52.2221 212.148 52.0259 213.172 51.6196C214.196 51.2132 215.164 50.6107 216.047 49.812H216.216V52.6985Z" fill="#DF1515" stroke="#DF1515" stroke-width="1.1" stroke-miterlimit="10"/>
<path d="M236.164 54.0294H233.737V39.373L224.633 54.0294H222.178V35.73H224.605V50.1761L233.597 35.73H236.164V54.0294Z" fill="#DF1515" stroke="#DF1515" stroke-width="1.1" stroke-miterlimit="10"/>
<path d="M257.262 37.8321C258.006 38.6448 258.581 39.6537 258.973 40.8447C259.366 42.0357 259.577 43.3808 259.577 44.8941C259.577 46.4074 259.38 47.7525 258.973 48.9435C258.567 50.1345 258.006 51.1293 257.276 51.928C256.519 52.7547 255.635 53.3852 254.597 53.7916C253.573 54.2119 252.394 54.4221 251.076 54.4221C249.785 54.4221 248.621 54.2119 247.569 53.7776C246.516 53.3572 245.619 52.7267 244.875 51.928C244.132 51.1293 243.571 50.1205 243.178 48.9435C242.785 47.7665 242.575 46.4214 242.575 44.8941C242.575 43.4088 242.771 42.0637 243.164 40.8867C243.557 39.7097 244.132 38.6869 244.889 37.8462C245.605 37.0475 246.502 36.431 247.583 35.9966C248.649 35.5762 249.827 35.3521 251.09 35.3521C252.408 35.3521 253.587 35.5622 254.625 35.9966C255.649 36.431 256.533 37.0335 257.262 37.8321ZM257.052 44.8941C257.052 42.5121 256.519 40.6905 255.452 39.3874C254.386 38.0984 252.927 37.4538 251.09 37.4538C249.224 37.4538 247.765 38.0984 246.699 39.3874C245.633 40.6765 245.1 42.5121 245.1 44.8941C245.1 47.2901 245.647 49.1397 246.727 50.4007C247.807 51.6758 249.266 52.3063 251.09 52.3063C252.913 52.3063 254.358 51.6758 255.438 50.4007C256.505 49.1256 257.052 47.2901 257.052 44.8941Z" fill="#DF1515" stroke="#DF1515" stroke-width="1.1" stroke-miterlimit="10"/>
<path d="M279.988 54.0294H277.547V45.0758H268.4V54.0294H265.959V35.73H268.4V42.904H277.547V35.73H279.988V54.0294Z" fill="#DF1515" stroke="#DF1515" stroke-width="1.1" stroke-miterlimit="10"/>
<path d="M301.872 54.0294H299.276L297.481 48.9291H289.555L287.759 54.0294H285.29L291.954 35.73H295.208L301.872 54.0294ZM296.723 46.8413L293.511 37.8598L290.284 46.8413H296.723Z" fill="#DF1515" stroke="#DF1515" stroke-width="1.1" stroke-miterlimit="10"/>
<path d="M320.753 54.0295H318.313V37.8879H311.691C311.663 38.8127 311.635 39.7235 311.593 40.6062C311.551 41.489 311.509 42.2877 311.481 42.9882C311.411 44.7397 311.312 46.1829 311.158 47.3179C311.004 48.4528 310.807 49.3776 310.569 50.1062C310.33 50.8489 310.064 51.4374 309.755 51.8717C309.461 52.3061 309.11 52.6984 308.731 53.0627C308.338 53.427 307.932 53.6792 307.525 53.8334C307.104 53.9875 306.627 54.0716 306.066 54.0716C305.898 54.0716 305.687 54.0716 305.435 54.0576C305.182 54.0436 305.014 54.0436 304.916 54.0436V51.6896H305.084C305.168 51.7036 305.266 51.7036 305.393 51.7176C305.519 51.7316 305.645 51.7316 305.757 51.7316C306.052 51.7316 306.332 51.6896 306.599 51.5915C306.866 51.5074 307.09 51.3673 307.258 51.1711C307.847 50.5826 308.268 49.6298 308.549 48.2987C308.829 46.9676 309.012 45.062 309.138 42.5959C309.18 41.7972 309.222 40.7323 309.264 39.4012C309.306 38.0701 309.349 36.8511 309.377 35.7441H320.739V54.0295H320.753Z" fill="#DF1515" stroke="#DF1515" stroke-width="1.1" stroke-miterlimit="10"/>
<path d="M77.5896 19.3081V21.564C77.5896 22.4187 77.5756 23.1053 77.5195 23.8199H77.5475C77.8141 23.2594 78.1508 22.6849 78.5435 22.0544L80.269 19.3081H80.9564V24.6606H80.3111V22.3907C80.3111 21.522 80.3251 20.8914 80.3812 20.2189L80.3532 20.2049C80.0866 20.7934 79.7219 21.4099 79.3572 22.0124L77.6878 24.6746H76.9443V19.3221H77.5896V19.3081Z" fill="white"/>
<path d="M86.0206 19.308V21.5498H88.6158V19.308H89.3172V24.6605H88.6158V22.1383H86.0206V24.6465H85.3332V19.2939H86.0206V19.308Z" fill="white"/>
<path d="M97.4114 24.4785C97.1589 24.6047 96.6539 24.7308 95.9946 24.7308C94.4795 24.7308 93.3433 23.778 93.3433 22.0265C93.3433 20.3591 94.4795 19.2241 96.1349 19.2241C96.8082 19.2241 97.2291 19.3642 97.4114 19.4623L97.2431 20.0228C96.9765 19.8967 96.6118 19.7986 96.1629 19.7986C94.9144 19.7986 94.0727 20.5973 94.0727 21.9985C94.0727 23.3016 94.8302 24.1423 96.1349 24.1423C96.5557 24.1423 96.9906 24.0582 97.2571 23.9181L97.4114 24.4785Z" fill="white"/>
<path d="M102.742 19.8824H101.115V19.2939H105.085V19.8824H103.443V24.6465H102.742V19.8824Z" fill="white"/>
<path d="M109.49 19.3081V21.564C109.49 22.4187 109.476 23.1053 109.419 23.8199H109.448C109.714 23.2594 110.051 22.6849 110.444 22.0544L112.169 19.3081H112.856V24.6606H112.211V22.3907C112.211 21.522 112.225 20.8914 112.281 20.2189L112.253 20.2049C111.987 20.7934 111.622 21.4099 111.257 22.0124L109.588 24.6746H108.844V19.3221H109.49V19.3081Z" fill="white"/>
<path d="M118.243 19.8824H116.616V19.2939H120.586V19.8824H118.945V24.6465H118.243V19.8824Z" fill="white"/>
<path d="M124.864 19.308L125.931 21.5779C126.071 21.9001 126.197 22.2084 126.323 22.5167H126.337C126.436 22.2364 126.534 21.9282 126.674 21.5498L127.502 19.2939H128.231L127.109 22.0403C126.814 22.7549 126.478 23.5675 126.113 24.072C125.762 24.5063 125.369 24.7305 124.893 24.7305C124.724 24.7305 124.598 24.7165 124.5 24.6885L124.57 24.128C124.626 24.142 124.71 24.156 124.822 24.156C125.384 24.142 125.706 23.6096 125.875 23.2313C125.931 23.1192 125.917 23.0351 125.846 22.909L124.065 19.308H124.864Z" fill="white"/>
<path d="M133.323 19.8824H131.696V19.2939H135.666V19.8824H134.025V24.6465H133.323V19.8824Z" fill="white"/>
<path d="M148.137 19.3081V24.6606H147.45V19.8966H144.967V24.6606H144.279V19.3081H148.137Z" fill="white"/>
<path d="M157.087 21.9142C157.087 23.7498 155.965 24.7306 154.604 24.7306C153.187 24.7306 152.205 23.6377 152.205 22.0123C152.205 20.3169 153.257 19.21 154.688 19.21C156.147 19.21 157.087 20.3309 157.087 21.9142ZM152.935 22.0123C152.935 23.1613 153.552 24.1841 154.646 24.1841C155.74 24.1841 156.358 23.1753 156.358 21.9703C156.358 20.9054 155.797 19.7985 154.646 19.7985C153.51 19.7704 152.935 20.8353 152.935 22.0123Z" fill="white"/>
<path d="M161.155 19.3782C161.45 19.3081 161.927 19.2661 162.418 19.2661C163.105 19.2661 163.554 19.3782 163.891 19.6584C164.171 19.8686 164.34 20.1769 164.34 20.5972C164.34 21.1157 164.003 21.564 163.428 21.7742V21.7882C163.933 21.9143 164.536 22.3347 164.536 23.1334C164.536 23.5958 164.354 23.9461 164.087 24.1983C163.708 24.5346 163.105 24.7027 162.235 24.7027C161.758 24.7027 161.394 24.6747 161.169 24.6326V19.3782H161.155ZM161.843 21.564H162.474C163.203 21.564 163.638 21.1857 163.638 20.6673C163.638 20.0368 163.161 19.7986 162.46 19.7986C162.137 19.7986 161.955 19.8266 161.843 19.8406V21.564ZM161.843 24.1282C161.983 24.1562 162.179 24.1562 162.418 24.1562C163.133 24.1562 163.793 23.89 163.793 23.1194C163.793 22.3907 163.161 22.0825 162.404 22.0825H161.829V24.1282H161.843Z" fill="white"/>
<path d="M169.306 19.3081V21.3118C169.46 21.2838 169.769 21.2698 169.937 21.2698C171.045 21.2698 171.999 21.7602 171.999 22.9372C171.999 23.4276 171.845 23.7919 171.592 24.0721C171.157 24.5345 170.414 24.7026 169.684 24.7026C169.207 24.7026 168.843 24.6746 168.618 24.6326V19.3081H169.306ZM169.306 24.1142C169.446 24.1422 169.628 24.1562 169.867 24.1562C170.624 24.1562 171.284 23.7639 171.284 22.9652C171.284 22.1385 170.568 21.8162 169.853 21.8162C169.6 21.8162 169.39 21.8442 169.306 21.8583V24.1142ZM173.304 19.3081V24.6606H172.602V19.3081H173.304Z" fill="white"/>
<path d="M178.396 19.3081V24.0721H180.135V19.3081H180.823V24.0721H182.548V19.3081H183.236V24.6606H177.708V19.3081H178.396Z" fill="white"/>
<path d="M190.376 22.1383H188.3V24.072H190.614V24.6465H187.598V19.2939H190.488V19.8684H188.286V21.5639H190.362V22.1383H190.376Z" fill="white"/>
<path d="M195.37 19.308V21.5498H197.965V19.308H198.666V24.6605H197.965V22.1383H195.37V24.6465H194.682V19.2939H195.37V19.308Z" fill="white"/>
<path d="M203.675 19.3081V21.564C203.675 22.4187 203.661 23.1053 203.618 23.8199L203.632 23.8339C203.899 23.2734 204.236 22.699 204.628 22.0684L206.354 19.3221H207.041V24.6746H206.396V22.4047C206.396 21.536 206.41 20.9055 206.466 20.2329L206.438 20.2189C206.172 20.8074 205.807 21.4239 205.442 22.0264L203.773 24.6886H203.029V19.3361H203.675V19.3081Z" fill="white"/>
<path d="M210.927 24.6465C211.011 24.5064 211.081 24.3382 211.138 24.1561C211.376 23.5396 211.516 22.7969 211.951 22.3626C212.077 22.2365 212.232 22.1384 212.4 22.0963V22.0683C211.741 21.9562 211.222 21.4798 211.222 20.7512C211.222 20.2888 211.418 19.9105 211.713 19.6583C212.049 19.3921 212.568 19.252 213.242 19.252C213.691 19.252 214.168 19.294 214.518 19.364V24.6325H213.831V22.3205H213.326C212.989 22.3205 212.751 22.3906 212.554 22.5868C212.19 22.9651 212.035 23.7497 211.853 24.2542C211.797 24.3943 211.755 24.5064 211.671 24.6465H210.927ZM213.831 19.8545C213.719 19.8264 213.494 19.7984 213.186 19.7984C212.498 19.7984 211.923 20.0646 211.923 20.7933C211.923 21.4378 212.498 21.8021 213.256 21.8021C213.48 21.8021 213.705 21.8021 213.845 21.7881V19.8545H213.831Z" fill="white"/>
<path d="M224.422 19.3081V21.6761H224.633L226.47 19.3081H227.298L225.278 21.7602C226.162 21.8723 226.498 22.4187 226.779 23.1473C226.975 23.6938 227.13 24.1842 227.368 24.6606H226.625C226.428 24.2963 226.288 23.8199 226.134 23.3996C225.895 22.699 225.544 22.2085 224.647 22.2085H224.422V24.6606H223.735V19.3081H224.422Z" fill="white"/>
<path d="M231.212 19.3782C231.506 19.3081 231.983 19.2661 232.474 19.2661C233.162 19.2661 233.611 19.3782 233.947 19.6584C234.228 19.8686 234.396 20.1769 234.396 20.5972C234.396 21.1157 234.059 21.564 233.484 21.7742V21.7882C233.989 21.9143 234.593 22.3347 234.593 23.1334C234.593 23.5958 234.41 23.9461 234.144 24.1983C233.765 24.5346 233.162 24.7027 232.292 24.7027C231.815 24.7027 231.45 24.6747 231.226 24.6326V19.3782H231.212ZM231.913 21.564H232.544C233.274 21.564 233.709 21.1857 233.709 20.6673C233.709 20.0368 233.232 19.7986 232.53 19.7986C232.208 19.7986 232.025 19.8266 231.913 19.8406V21.564ZM231.913 24.1282C232.053 24.1562 232.25 24.1562 232.488 24.1562C233.204 24.1562 233.863 23.89 233.863 23.1194C233.863 22.3907 233.232 22.0825 232.474 22.0825H231.899V24.1282H231.913Z" fill="white"/>
<path d="M239.559 22.965L238.997 24.6465H238.282L240.106 19.2939H240.933L242.757 24.6465H242.013L241.438 22.965H239.559ZM241.312 22.4326L240.793 20.8913C240.681 20.541 240.597 20.2187 240.512 19.9105H240.498C240.414 20.2327 240.33 20.555 240.232 20.8773L239.713 22.4186H241.312V22.4326Z" fill="white"/>
<path d="M250.5 19.3081V24.6606H249.799V19.8966H248.031V21.508C248.031 22.6709 247.989 23.96 247.232 24.4644C247.036 24.5906 246.727 24.7167 246.418 24.7167L246.334 24.1562C246.545 24.1142 246.769 23.988 246.895 23.876C247.33 23.4556 247.358 22.4187 247.358 21.564V19.3081H250.5Z" fill="white"/>
<path d="M255.523 19.3081V21.564C255.523 22.4187 255.509 23.1053 255.466 23.8199L255.48 23.8339C255.747 23.2734 256.084 22.699 256.476 22.0684L258.202 19.3221H258.889V24.6746H258.244V22.4047C258.244 21.536 258.258 20.9055 258.314 20.2329L258.286 20.2189C258.02 20.8074 257.655 21.4239 257.29 22.0264L255.621 24.6886H254.877V19.3361H255.523V19.3081Z" fill="white"/>
<path d="M265.875 19.084V19.5604C266.998 19.6024 268.134 20.289 268.134 21.9704C268.134 23.6518 267.012 24.2964 265.875 24.3524V24.8568H265.202V24.3524C264.08 24.2824 262.943 23.6799 262.943 21.9984C262.943 20.247 264.178 19.6164 265.216 19.5604V19.084H265.875ZM265.202 20.0648C264.501 20.1068 263.659 20.5832 263.659 21.9704C263.659 23.2455 264.416 23.792 265.202 23.862V20.0648ZM265.861 23.876C266.633 23.806 267.404 23.3015 267.404 21.9704C267.404 20.5973 266.633 20.1068 265.861 20.0648V23.876Z" fill="white"/>
<path d="M272.833 19.3081V21.564C272.833 22.4187 272.819 23.1053 272.777 23.8199L272.791 23.8339C273.058 23.2734 273.394 22.699 273.787 22.0684L275.513 19.3221H276.2V24.6746H275.555V22.4047C275.555 21.536 275.569 20.9055 275.625 20.2329L275.597 20.2189C275.33 20.8074 274.966 21.4239 274.601 22.0264L272.931 24.6886H272.188V19.3361H272.833V19.3081Z" fill="white"/>
<path d="M281.264 19.3081V21.6761H281.475L283.312 19.3081H284.14L282.12 21.7602C283.004 21.8723 283.34 22.4187 283.621 23.1473C283.817 23.6938 283.972 24.1842 284.21 24.6606H283.467C283.27 24.2963 283.13 23.8199 282.976 23.3996C282.737 22.699 282.386 22.2085 281.489 22.2085H281.264V24.6606H280.577V19.3081H281.264Z" fill="white"/>
<path d="M288.952 22.965L288.39 24.6465H287.675L289.499 19.2939H290.326L292.15 24.6465H291.407L290.831 22.965H288.952ZM290.705 22.4326L290.186 20.8913C290.074 20.541 289.99 20.2187 289.906 19.9105H289.891C289.807 20.2327 289.723 20.555 289.625 20.8773L289.106 22.4186H290.705V22.4326Z" fill="white"/>
<path d="M296.807 19.308V24.072H299.262V19.308H299.964V24.086L300.427 24.1L300.385 25.9355H299.837L299.795 24.6465H296.12V19.2939H296.807V19.308Z" fill="white"/>
<path d="M305.112 19.3081V21.564C305.112 22.4187 305.098 23.1053 305.056 23.8199L305.07 23.8339C305.336 23.2734 305.673 22.699 306.066 22.0684L307.791 19.3221H308.479V24.6746H307.834V22.4047C307.834 21.536 307.848 20.9055 307.904 20.2329L307.876 20.2189C307.609 20.8074 307.244 21.4239 306.88 22.0264L305.21 24.6886H304.467V19.3361H305.112V19.3081Z" fill="white"/>
<path d="M313.501 19.3081V21.564C313.501 22.4187 313.487 23.1053 313.445 23.8199L313.459 23.8339C313.725 23.2734 314.062 22.699 314.455 22.0684L316.18 19.3221H316.868V24.6746H316.222V22.4047C316.222 21.536 316.236 20.9055 316.292 20.2329L316.264 20.2189C315.998 20.8074 315.633 21.4239 315.268 22.0264L313.599 24.6886H312.856V19.3361H313.501V19.3081Z" fill="white"/>
</svg>
