<svg width="66" height="25" viewBox="0 0 66 25" fill="none" xmlns="http://www.w3.org/2000/svg">
<path d="M27.4863 21.5771C30.1432 19.2065 32.7649 16.848 35.4453 14.4532C34.5401 14.4532 33.7289 14.4291 32.9295 14.4532C32.1418 14.4774 31.4834 14.2234 30.9309 13.655C30.8603 13.5824 30.7663 13.534 30.6605 13.4494C29.6847 14.2476 28.6972 15.058 27.7096 15.8562C27.498 16.0256 27.2747 16.1707 27.0866 16.3521C26.8162 16.6182 26.5458 16.6424 26.2048 16.3884C27.4392 15.2273 28.6619 14.0783 29.8963 12.9051C28.9793 12.0706 28.0858 11.2602 27.1336 10.4015C27.3805 10.1475 27.6038 9.89349 27.8625 9.69998C27.9448 9.6395 28.1564 9.67579 28.2857 9.73626C29.6024 10.3168 30.9191 10.8974 32.2358 11.5021C32.8001 11.7682 33.2704 11.7077 33.7289 11.2481C34.834 10.1354 35.9743 9.05895 37.1029 7.97042C37.5027 7.58338 37.9376 7.22054 38.3374 6.80931C39.2308 5.9022 40.3242 5.64821 41.4763 5.96268C42.2757 6.18038 42.9341 5.93849 43.6982 5.70868C43.6395 5.64821 43.6159 5.61193 43.5807 5.59983C43.5572 5.57564 43.5101 5.57564 43.4631 5.55145C44.4154 4.06379 45.2853 2.52775 46.3199 1.13684C46.7079 0.60467 47.472 0.350678 48.0716 -7.14613e-05C48.1656 -0.0484507 48.342 0.0724975 48.5183 0.132972C47.7424 1.92301 46.9665 3.68885 46.2023 5.46679C46.5903 5.66031 47.0958 5.75706 47.0018 6.41018C46.9195 6.39809 46.8372 6.39809 46.7784 6.36181C46.1906 5.97477 45.9084 5.97477 45.4617 6.49485C45.2148 6.78512 45.015 7.17216 44.9091 7.535C44.8621 7.70433 45.0032 8.03089 45.156 8.15184C45.2736 8.2486 45.5557 8.13974 45.7556 8.06717C45.4029 7.87366 45.0855 7.66805 45.1795 7.22054C45.2853 6.73674 45.6733 6.49485 46.1083 6.36181C46.3904 6.27714 46.8842 6.53113 47.0605 6.80931C47.2369 7.0754 47.0723 7.24473 46.896 7.38986C46.6491 7.59548 46.3787 7.7769 46.1553 8.04298C46.2258 8.0188 46.2846 8.0067 46.4727 7.94623C46.2023 8.35745 46.0142 8.7082 45.7674 8.99848C44.4859 10.5466 42.9458 11.7561 41.0531 12.385C40.2772 12.639 39.6776 13.1107 39.078 13.6066C35.8685 16.2554 32.6708 18.9041 29.4613 21.5408C29.0146 21.9399 28.0035 21.952 27.4863 21.5771ZM39.4777 9.51855C40.1008 8.28488 40.912 7.29311 41.9466 6.45856C41.1119 6.09572 40.477 6.10781 39.9362 6.47066C39.2661 6.93026 38.7606 7.5471 38.3021 8.2365C38.7018 8.67192 39.078 9.08314 39.4777 9.51855ZM37.6908 8.91381C37.6437 8.88962 37.6085 8.86543 37.5614 8.84124C37.3851 9.05895 37.197 9.27666 37.0324 9.50646C36.9736 9.59112 36.9384 9.72416 36.9619 9.80883C37.0912 10.1596 37.244 10.4982 37.3969 10.8732C37.679 10.7038 37.9259 10.5587 38.1728 10.4257C38.0082 9.8814 37.8554 9.3976 37.6908 8.91381ZM38.7136 10.1475C38.8781 10.0628 39.031 9.99025 39.2191 9.89349C38.8899 9.53065 38.6078 9.20409 38.3138 8.87753C38.2903 8.88962 38.2786 8.90172 38.2551 8.91381C38.4079 9.30085 38.549 9.68788 38.7136 10.1475Z" fill="white"/>
<path d="M51.1518 16.1104C50.8108 17.0538 50.4934 17.9247 50.1642 18.7955C49.4589 20.7428 48.7417 22.6779 48.0363 24.6252C47.9305 24.9034 47.8012 25.0122 47.5308 24.9759C47.3662 24.9518 47.1899 24.9518 47.0135 24.9759C46.6138 25.0122 46.3905 24.8187 46.2494 24.4438C45.6263 22.811 44.9915 21.1903 44.3684 19.5696C44.3213 19.4365 44.2508 19.3035 44.1685 19.0979C43.6395 20.4888 43.134 21.8071 42.6167 23.1254C42.4286 23.6213 42.2287 24.1051 42.0641 24.601C41.9701 24.8671 41.8525 25.0122 41.5586 24.9638C41.394 24.9397 41.2059 24.9397 41.0413 24.9638C40.6063 25.0364 40.3947 24.7945 40.2537 24.4196C39.2661 21.7829 38.2903 19.1583 37.3028 16.5217C37.2558 16.4128 37.2323 16.2919 37.1617 16.1104C37.8671 16.1104 38.5372 16.0983 39.2073 16.1225C39.2896 16.1225 39.4072 16.316 39.4542 16.437C40.0538 18.0819 40.6534 19.7389 41.2412 21.3959C41.2647 21.4684 41.3 21.541 41.3587 21.6982C41.5351 21.2507 41.6762 20.8879 41.8172 20.525C42.3463 19.1583 42.8753 17.8037 43.3926 16.437C43.4866 16.1951 43.616 16.0983 43.8511 16.0983C43.8628 16.0983 43.8746 16.0983 43.8864 16.0983C45.0502 16.0379 45.0502 16.0379 45.4852 17.1506C46.0025 18.5173 46.5315 19.8719 47.0488 21.2386C47.0958 21.3475 47.1429 21.4563 47.2134 21.6378C47.2839 21.4563 47.3427 21.3354 47.378 21.2265C47.9305 19.6542 48.4948 18.094 49.0239 16.5217C49.1297 16.1951 49.306 16.1104 49.5882 16.1104C50.0937 16.1225 50.5992 16.1104 51.1518 16.1104Z" fill="white"/>
<path d="M15.4008 24.9638C14.4133 24.9638 13.414 24.9759 12.4265 24.9638C11.4154 24.9517 10.9922 24.5647 10.9569 23.5124C10.9099 22.0368 10.8981 20.5613 10.9452 19.0736C10.9804 18.0818 11.3331 17.7311 12.3089 17.7069C14.3545 17.6706 16.4001 17.6706 18.4574 17.7069C19.4567 17.719 19.8447 18.1544 19.8565 19.1704C19.88 20.6218 19.88 22.0852 19.8565 23.5366C19.8447 24.5405 19.445 24.9396 18.4574 24.9517C17.4346 24.9759 16.4236 24.9638 15.4008 24.9638ZM18.0812 23.3915C18.0812 21.9401 18.0812 20.525 18.0812 19.0857C16.259 19.0857 14.4603 19.0857 12.6498 19.0857C12.6498 20.5371 12.6498 21.9522 12.6498 23.3915C14.4721 23.3915 16.259 23.3915 18.0812 23.3915Z" fill="white"/>
<path d="M64.1895 17.731C64.8126 17.731 65.3887 17.731 65.9883 17.731C65.9883 20.1499 65.9883 22.5326 65.9883 24.9637C65.4004 24.9758 64.8597 25.0725 64.3306 24.6129C62.7082 23.222 61.0388 21.8916 59.3812 20.537C59.2872 20.4644 59.1931 20.3918 59.0285 20.2709C59.0285 21.8795 59.0285 23.4155 59.0285 24.9999C58.5347 24.9999 58.0998 25.0362 57.6765 24.9878C57.4649 24.9637 57.2298 24.8306 57.2298 24.5161C57.2298 22.2786 57.2298 20.029 57.2298 17.731C57.9117 17.7793 58.5465 17.5979 59.1696 18.1543C60.6862 19.4968 62.285 20.7547 63.8604 22.0488C63.9544 22.1214 64.0485 22.1939 64.2013 22.3149C64.1895 20.7305 64.1895 19.2307 64.1895 17.731Z" fill="white"/>
<path d="M0.0117688 20.936C0.681879 20.8151 1.29321 20.6941 1.97507 20.5611C1.97507 21.4319 1.97507 22.2665 1.97507 23.1373C3.26827 23.1373 4.50268 23.1373 5.79588 23.1373C5.79588 20.803 5.79588 18.4929 5.79588 16.1465C6.47775 16.1465 7.10083 16.1465 7.7827 16.1465C7.7827 16.2795 7.7827 16.4005 7.7827 16.5335C7.7827 18.6501 7.7827 20.7788 7.7827 22.8954C7.7827 23.1252 7.77094 23.355 7.72392 23.5848C7.55933 24.5645 7.18313 24.9394 6.20735 24.9515C4.66727 24.9878 3.11544 24.9878 1.5636 24.9515C0.529047 24.9273 0.0705505 24.4193 0.0117688 23.3066C-0.0235001 22.5325 0.0117688 21.7585 0.0117688 20.936Z" fill="white"/>
<path d="M21.0085 17.6949C21.7845 17.6949 22.4781 17.6828 23.16 17.707C23.2893 17.707 23.4421 17.8279 23.5479 17.9368C24.265 18.7109 24.9822 19.497 25.617 20.1864C26.3812 19.4607 27.1336 18.7592 27.8625 18.0335C28.0976 17.8037 28.3092 17.6586 28.6502 17.6828C29.1557 17.7191 29.673 17.6949 30.2608 17.6949C30.1315 17.8521 30.0609 17.9368 29.9904 18.0215C28.9206 19.1584 27.8507 20.2832 26.7927 21.4322C26.6516 21.5894 26.5458 21.8555 26.5458 22.0611C26.5223 23.0045 26.534 23.96 26.534 24.9639C26.0167 24.9639 25.5347 24.9881 25.0527 24.9518C24.7706 24.9276 24.7588 24.6615 24.7588 24.4317C24.7588 23.6455 24.7471 22.8473 24.7706 22.0611C24.7823 21.7346 24.6765 21.5048 24.4531 21.275C23.3128 20.126 22.1959 18.9528 21.0085 17.6949Z" fill="white"/>
<path d="M54.3848 24.9756C53.891 24.9756 53.409 25.0119 52.9388 24.9515C52.7742 24.9273 52.5155 24.6612 52.5155 24.5039C52.492 22.2664 52.5038 20.0289 52.5155 17.7792C52.5155 17.7671 52.5273 17.755 52.5508 17.7188C53.1386 17.7188 53.7499 17.7188 54.3848 17.7188C54.3848 20.1498 54.3848 22.5446 54.3848 24.9756Z" fill="white"/>
</svg>
