<svg width="251" height="49" viewBox="0 0 251 49" fill="none" xmlns="http://www.w3.org/2000/svg">
<path d="M21.0164 24.6147L12.7542 19.733L8.42261 22.0822L21.1883 29.3359L41.9411 17.212V12.3188L21.0164 24.6147Z" fill="#383D4E"/>
<path d="M21.0278 34.5153L9.38519 27.5022L5.04211 29.8514L21.1883 39.2366L41.9411 27.1241V22.231L21.0278 34.5153Z" fill="#383D4E"/>
<path d="M38.0563 5.36279L20.9934 15.1147L16.6389 12.7426L12.7542 14.748L21.1882 19.2859L41.941 7.1619L38.0563 5.36279Z" fill="#DF1515"/>
<path d="M37.7928 34.3206L20.9705 44.1527L4.14827 34.3206V14.6794L20.9705 4.84729L25.05 7.23082L29.2556 4.83583L20.9705 0L0 12.25V36.75L20.9705 49L41.9411 36.75V31.811L37.7928 34.3206Z" fill="#DF1515"/>
<path d="M54.7526 21.9219H65.3753V36.8992H63.8742V23.3428H56.2537V36.8877H54.7526V21.9219Z" fill="#DF1515" stroke="#DF1515" stroke-width="0.75" stroke-miterlimit="10"/>
<path d="M70.0507 21.9219H73.0301C74.7375 21.9219 75.8949 21.9906 76.4908 22.1511C77.3502 22.3573 78.0493 22.7928 78.5878 23.446C79.1264 24.0991 79.4014 24.9242 79.4014 25.9097C79.4014 26.9067 79.1379 27.7317 78.6108 28.3735C78.0836 29.0266 77.3502 29.4621 76.422 29.6798C75.7459 29.8403 74.4739 29.9205 72.6175 29.9205H71.5518V36.8877H70.0507V21.9219ZM71.5518 23.3887V28.4651L74.0843 28.4995C75.1042 28.4995 75.8605 28.4078 76.3304 28.2245C76.8002 28.0411 77.1783 27.7317 77.4534 27.3192C77.7284 26.9067 77.8659 26.4368 77.8659 25.9212C77.8659 25.417 77.7284 24.9586 77.4534 24.5461C77.1783 24.1335 76.8231 23.8356 76.3762 23.6522C75.9293 23.4803 75.2073 23.3887 74.1875 23.3887H71.5518Z" fill="#DF1515" stroke="#DF1515" stroke-width="0.75" stroke-miterlimit="10"/>
<path d="M90.5742 21.5437C92.8431 21.5437 94.7454 22.3 96.2694 23.8126C97.7935 25.3253 98.5613 27.1931 98.5613 29.4048C98.5613 31.5935 97.7935 33.4614 96.2694 34.9855C94.7454 36.5096 92.889 37.2773 90.6888 37.2773C88.4657 37.2773 86.5978 36.521 85.0622 34.9969C83.5382 33.4728 82.7704 31.6393 82.7704 29.485C82.7704 28.0411 83.1142 26.7118 83.8132 25.4857C84.5122 24.2596 85.4633 23.297 86.6551 22.598C87.8698 21.8875 89.1761 21.5437 90.5742 21.5437ZM90.6429 22.999C89.5314 22.999 88.4886 23.2855 87.4916 23.8699C86.4947 24.4429 85.7269 25.2221 85.1654 26.2076C84.6039 27.1931 84.3289 28.2703 84.3289 29.4735C84.3289 31.2497 84.9477 32.7509 86.1738 33.977C87.3999 35.2032 88.8897 35.8105 90.6315 35.8105C91.7889 35.8105 92.866 35.5241 93.863 34.9626C94.8485 34.401 95.6277 33.6333 96.1778 32.6478C96.7278 31.6623 97.0143 30.5851 97.0143 29.3819C97.0143 28.1901 96.7393 27.1129 96.1778 26.1618C95.6277 25.1992 94.8485 24.4314 93.8401 23.8585C92.8317 23.2855 91.7659 22.999 90.6429 22.999Z" fill="#DF1515" stroke="#DF1515" stroke-width="0.75" stroke-miterlimit="10"/>
<path d="M109.115 21.9219H110.617V23.8356H111.763C114.02 23.8356 115.578 24.271 116.461 25.1534C117.332 26.0358 117.779 27.09 117.779 28.3162C117.779 29.4392 117.389 30.4361 116.621 31.307C115.854 32.178 114.387 32.6134 112.244 32.6134H110.628V36.8992H109.127V32.6134H107.511C106.365 32.6134 105.426 32.4988 104.681 32.2811C103.936 32.0634 103.294 31.5935 102.756 30.8716C102.217 30.1497 101.953 29.3017 101.953 28.3162C101.953 27.09 102.389 26.0472 103.26 25.1649C104.131 24.2825 105.701 23.847 107.981 23.847H109.127V21.9219H109.115ZM109.115 25.2795H107.431C106.205 25.2795 105.231 25.543 104.543 26.0587C103.844 26.5744 103.5 27.3192 103.5 28.2818C103.5 29.1069 103.775 29.7944 104.325 30.3445C104.875 30.8945 105.701 31.1695 106.789 31.1695L107.546 31.1581H109.115V25.2795ZM110.605 25.2795V31.1581H112.187L112.989 31.1695C114.031 31.1695 114.834 30.8945 115.384 30.3445C115.934 29.7944 116.209 29.1069 116.209 28.2818C116.209 27.365 115.888 26.6316 115.235 26.0931C114.582 25.543 113.596 25.2795 112.278 25.2795H110.605Z" fill="#DF1515" stroke="#DF1515" stroke-width="0.75" stroke-miterlimit="10"/>
<path d="M121.824 21.9219H130.407V23.3887H123.325V28.087H130.349V29.5538H123.325V35.4324H130.349V36.8992H121.824V21.9219Z" fill="#DF1515" stroke="#DF1515" stroke-width="0.75" stroke-miterlimit="10"/>
<path d="M147.974 24.695L146.794 25.6003C146.141 24.7523 145.361 24.1106 144.445 23.6751C143.528 23.2397 142.531 23.022 141.431 23.022C140.239 23.022 139.127 23.3084 138.108 23.8814C137.088 24.4544 136.297 25.2222 135.735 26.1962C135.174 27.1588 134.899 28.2474 134.899 29.4621C134.899 31.2841 135.529 32.8082 136.778 34.0344C138.027 35.2605 139.609 35.8678 141.522 35.8678C143.619 35.8678 145.373 35.0428 146.782 33.4041L147.963 34.2979C147.218 35.249 146.29 35.9824 145.167 36.4981C144.043 37.0138 142.806 37.2773 141.431 37.2773C138.807 37.2773 136.744 36.4064 135.231 34.6646C133.959 33.1864 133.329 31.4102 133.329 29.336C133.329 27.1473 134.097 25.3024 135.632 23.8012C137.168 22.3 139.093 21.5552 141.408 21.5552C142.806 21.5552 144.066 21.8302 145.201 22.3802C146.335 22.9188 147.252 23.6981 147.974 24.695Z" fill="#DF1515" stroke="#DF1515" stroke-width="0.75" stroke-miterlimit="10"/>
<path d="M165.965 24.695L164.785 25.6003C164.132 24.7523 163.352 24.1106 162.436 23.6751C161.519 23.2397 160.522 23.022 159.422 23.022C158.23 23.022 157.119 23.3084 156.099 23.8814C155.079 24.4544 154.288 25.2222 153.727 26.1962C153.165 27.1588 152.89 28.2474 152.89 29.4621C152.89 31.2841 153.52 32.8082 154.769 34.0344C156.018 35.2605 157.6 35.8678 159.514 35.8678C161.611 35.8678 163.364 35.0428 164.773 33.4041L165.954 34.2979C165.209 35.249 164.281 35.9824 163.158 36.4981C162.035 37.0138 160.797 37.2773 159.422 37.2773C156.798 37.2773 154.735 36.4064 153.222 34.6646C151.95 33.1864 151.32 31.4102 151.32 29.336C151.32 27.1473 152.088 25.3024 153.624 23.8012C155.159 22.3 157.084 21.5552 159.399 21.5552C160.797 21.5552 162.058 21.8302 163.192 22.3802C164.327 22.9188 165.243 23.6981 165.965 24.695Z" fill="#DF1515" stroke="#DF1515" stroke-width="0.75" stroke-miterlimit="10"/>
<path d="M181.79 36.8877H180.232V25.4055L170.354 36.8877H170.022V21.9219H171.523V33.5989L181.458 21.9219H181.79V36.8877Z" fill="#DF1515" stroke="#DF1515" stroke-width="0.75" stroke-miterlimit="10"/>
<path d="M193.605 21.5437C195.874 21.5437 197.776 22.3 199.3 23.8126C200.824 25.3253 201.592 27.1931 201.592 29.4048C201.592 31.5935 200.824 33.4614 199.3 34.9855C197.776 36.5096 195.92 37.2773 193.72 37.2773C191.496 37.2773 189.629 36.521 188.093 34.9969C186.569 33.4728 185.801 31.6393 185.801 29.485C185.801 28.0411 186.145 26.7118 186.844 25.4857C187.543 24.2596 188.494 23.297 189.686 22.598C190.912 21.8875 192.207 21.5437 193.605 21.5437ZM193.674 22.999C192.562 22.999 191.519 23.2855 190.522 23.8699C189.525 24.4429 188.758 25.2221 188.196 26.2076C187.635 27.1931 187.36 28.2703 187.36 29.4735C187.36 31.2497 187.978 32.7509 189.205 33.977C190.431 35.2032 191.92 35.8105 193.662 35.8105C194.82 35.8105 195.897 35.5241 196.894 34.9626C197.879 34.401 198.659 33.6333 199.209 32.6478C199.759 31.6623 200.045 30.5851 200.045 29.3819C200.045 28.1901 199.77 27.1129 199.209 26.1618C198.659 25.1992 197.879 24.4314 196.871 23.8585C195.862 23.2855 194.808 22.999 193.674 22.999Z" fill="#DF1515" stroke="#DF1515" stroke-width="0.75" stroke-miterlimit="10"/>
<path d="M205.626 21.9219H207.127V28.2016H214.747V21.9219H216.248V36.8992H214.747V29.6684H207.127V36.8992H205.626V21.9219Z" fill="#DF1515" stroke="#DF1515" stroke-width="0.75" stroke-miterlimit="10"/>
<path d="M227.043 21.9219L234.022 36.8992H232.406L230.046 31.9717H223.594L221.256 36.8992H219.583L226.677 21.9219H227.043ZM226.86 25.0961L224.293 30.5164H229.415L226.86 25.0961Z" fill="#DF1515" stroke="#DF1515" stroke-width="0.75" stroke-miterlimit="10"/>
<path d="M249.515 36.8877H247.888L242.926 25.3138L237.884 36.8877H236.256L242.765 21.9219H243.086L249.515 36.8877Z" fill="#DF1515" stroke="#DF1515" stroke-width="0.75" stroke-miterlimit="10"/>
<path d="M53.939 6.73778V8.51397C53.939 9.17861 53.9275 9.72866 53.8932 10.3016L53.9046 10.3131C54.1224 9.87763 54.3859 9.41926 54.6839 8.91505L56.0475 6.73778H56.5976V10.9548H56.0819V9.15569C56.0819 8.46813 56.0934 7.97538 56.1277 7.4368L56.1048 7.42534C55.8986 7.88371 55.6121 8.37646 55.3256 8.84629L54.0078 10.9433H53.4233V6.72632H53.939V6.73778Z" fill="black"/>
<path d="M60.6083 6.73804V8.50277H62.6481V6.73804H63.1981V10.9551H62.6481V8.9726H60.6083V10.9551H60.0583V6.73804H60.6083Z" fill="black"/>
<path d="M69.6038 10.8179C69.409 10.9211 69.0079 11.0128 68.4923 11.0128C67.3005 11.0128 66.4067 10.2564 66.4067 8.88132C66.4067 7.5635 67.3005 6.66968 68.6069 6.66968C69.134 6.66968 69.4663 6.78427 69.6038 6.85303L69.4778 7.29994C69.2715 7.19681 68.9736 7.12805 68.6298 7.12805C67.6443 7.12805 66.9796 7.75831 66.9796 8.86986C66.9796 9.9012 67.5755 10.5658 68.6069 10.5658C68.9392 10.5658 69.2715 10.4971 69.5007 10.394L69.6038 10.8179Z" fill="black"/>
<path d="M73.8094 7.20788H72.526V6.74951H75.6544V7.20788H74.3595V10.9665H73.8094V7.20788Z" fill="black"/>
<path d="M79.1493 6.73778V8.51397C79.1493 9.17861 79.1379 9.72866 79.1035 10.3016L79.115 10.3131C79.3327 9.87763 79.5962 9.41926 79.8942 8.91505L81.2578 6.73778H81.8079V10.9548H81.2922V9.15569C81.2922 8.46813 81.3037 7.97538 81.3381 7.4368L81.3151 7.42534C81.1089 7.88371 80.8224 8.37646 80.5359 8.84629L79.2181 10.9433H78.6337V6.72632H79.1493V6.73778Z" fill="black"/>
<path d="M86.0594 7.20788H84.776V6.74951H87.9044V7.20788H86.6095V10.9665H86.0594V7.20788Z" fill="black"/>
<path d="M91.2848 6.73804L92.1213 8.53715C92.2245 8.78925 92.3276 9.0299 92.4307 9.282H92.4422C92.5224 9.06428 92.6026 8.82363 92.7057 8.51423L93.3589 6.73804H93.9319L93.0495 8.90385C92.8203 9.46535 92.5568 10.1071 92.2588 10.5082C91.9838 10.8519 91.6744 11.0238 91.2962 11.0238C91.1587 11.0238 91.0556 11.0124 90.9868 10.9894L91.0441 10.5425C91.09 10.554 91.1473 10.5654 91.2389 10.5654C91.6744 10.554 91.938 10.1415 92.064 9.84351C92.1099 9.75183 92.0984 9.68308 92.0411 9.5914L90.6431 6.7495H91.2848V6.73804Z" fill="black"/>
<path d="M97.9656 7.20788H96.6821V6.74951H99.8105V7.20788H98.5156V10.9665H97.9656V7.20788Z" fill="black"/>
<path d="M109.677 6.73804V10.9551H109.127V7.19641H107.167V10.9551H106.617V6.73804H109.677Z" fill="black"/>
<path d="M116.736 8.81221C116.736 10.2675 115.854 11.0353 114.777 11.0353C113.665 11.0353 112.874 10.1759 112.874 8.89242C112.874 7.55168 113.711 6.68077 114.834 6.68077C115.991 6.66932 116.736 7.55168 116.736 8.81221ZM113.47 8.88096C113.47 9.78625 113.963 10.5884 114.811 10.5884C115.67 10.5884 116.163 9.79771 116.163 8.83512C116.163 7.99859 115.728 7.11623 114.822 7.11623C113.917 7.11623 113.47 7.95276 113.47 8.88096Z" fill="black"/>
<path d="M119.956 6.79553C120.197 6.74969 120.575 6.70386 120.953 6.70386C121.503 6.70386 121.847 6.79553 122.11 7.01326C122.328 7.17369 122.466 7.42579 122.466 7.75811C122.466 8.15919 122.202 8.52589 121.755 8.68632V8.69778C122.156 8.80091 122.626 9.13323 122.626 9.75203C122.626 10.1187 122.477 10.3938 122.271 10.6C121.973 10.8636 121.503 10.9896 120.816 10.9896C120.437 10.9896 120.151 10.9667 119.968 10.9438V6.79553H119.956ZM120.506 8.52589H120.999C121.572 8.52589 121.916 8.22794 121.916 7.81541C121.916 7.32266 121.537 7.12785 120.987 7.12785C120.735 7.12785 120.598 7.15077 120.506 7.16223V8.52589ZM120.506 10.5427C120.609 10.5656 120.77 10.5656 120.964 10.5656C121.526 10.5656 122.053 10.3594 122.053 9.74057C122.053 9.16761 121.56 8.92696 120.964 8.92696H120.518V10.5427H120.506Z" fill="black"/>
<path d="M126.408 6.73804V8.31942C126.534 8.2965 126.774 8.28504 126.912 8.28504C127.783 8.28504 128.539 8.6632 128.539 9.60286C128.539 9.99248 128.413 10.279 128.218 10.4967C127.874 10.8634 127.29 10.9894 126.717 10.9894C126.339 10.9894 126.052 10.9665 125.869 10.9436V6.73804H126.408ZM126.408 10.5425C126.522 10.5654 126.66 10.5769 126.843 10.5769C127.439 10.5769 127.966 10.2675 127.966 9.63724C127.966 8.98406 127.405 8.73196 126.843 8.73196C126.648 8.73196 126.476 8.75488 126.408 8.76634V10.5425ZM129.559 6.73804V10.9551H129.009V6.73804H129.559Z" fill="black"/>
<path d="M133.581 6.73804V10.4967H134.956V6.73804H135.495V10.4967H136.859V6.73804H137.409V10.9551H133.054V6.73804H133.581Z" fill="black"/>
<path d="M143.035 8.98408H141.396V10.5082H143.218V10.9665H140.846V6.74951H143.127V7.20788H141.396V8.53716H143.035V8.98408Z" fill="black"/>
<path d="M146.989 6.73804V8.50277H149.028V6.73804H149.578V10.9551H149.028V8.9726H146.989V10.9551H146.438V6.73804H146.989Z" fill="black"/>
<path d="M153.555 6.73778V8.51397C153.555 9.17861 153.543 9.72866 153.509 10.3016L153.52 10.3131C153.738 9.87763 154.002 9.41926 154.3 8.91505L155.663 6.73778H156.213V10.9548H155.698V9.15569C155.698 8.46813 155.709 7.97538 155.743 7.4368L155.721 7.42534C155.514 7.88371 155.228 8.37646 154.941 8.84629L153.623 10.9433H153.039V6.72632H153.555V6.73778Z" fill="black"/>
<path d="M159.284 10.9553C159.342 10.8407 159.399 10.7146 159.456 10.5771C159.64 10.0958 159.754 9.51139 160.098 9.16761C160.201 9.06447 160.327 8.99572 160.453 8.94988V8.92696C159.937 8.83529 159.525 8.46859 159.525 7.88417C159.525 7.51747 159.674 7.21953 159.915 7.02472C160.178 6.80699 160.591 6.70386 161.118 6.70386C161.473 6.70386 161.851 6.73824 162.126 6.79553V10.9553H161.576V9.12177H161.175C160.912 9.12177 160.717 9.17907 160.568 9.32804C160.281 9.62598 160.167 10.2448 160.006 10.6459C159.96 10.749 159.926 10.8407 159.869 10.9553H159.284ZM161.565 7.17369C161.473 7.15077 161.301 7.12785 161.049 7.12785C160.51 7.12785 160.052 7.33412 160.052 7.91854C160.052 8.42275 160.499 8.72069 161.095 8.72069C161.278 8.72069 161.45 8.7207 161.553 8.70924V7.17369H161.565Z" fill="black"/>
<path d="M169.953 6.73804V8.6059H170.125L171.569 6.73804H172.222L170.629 8.67466C171.328 8.76633 171.592 9.19033 171.809 9.76329C171.97 10.1987 172.084 10.5884 172.268 10.9551H171.683C171.534 10.6686 171.42 10.2904 171.305 9.9581C171.11 9.3966 170.847 9.01844 170.125 9.01844H169.953V10.9551H169.414V6.73804H169.953Z" fill="black"/>
<path d="M175.316 6.79553C175.557 6.74969 175.935 6.70386 176.313 6.70386C176.863 6.70386 177.207 6.79553 177.47 7.01326C177.688 7.17369 177.826 7.42579 177.826 7.75811C177.826 8.15919 177.562 8.52589 177.115 8.68632V8.69778C177.516 8.80091 177.986 9.13323 177.986 9.75203C177.986 10.1187 177.837 10.3938 177.631 10.6C177.333 10.8636 176.863 10.9896 176.175 10.9896C175.797 10.9896 175.511 10.9667 175.327 10.9438V6.79553H175.316ZM175.855 8.52589H176.347C176.92 8.52589 177.264 8.22794 177.264 7.81541C177.264 7.32266 176.886 7.12785 176.336 7.12785C176.084 7.12785 175.946 7.15077 175.855 7.16223V8.52589ZM175.855 10.5427C175.958 10.5656 176.118 10.5656 176.313 10.5656C176.874 10.5656 177.402 10.3594 177.402 9.74057C177.402 9.16761 176.909 8.92696 176.313 8.92696H175.866V10.5427H175.855Z" fill="black"/>
<path d="M181.894 9.63726L181.458 10.9665H180.897L182.329 6.74951H182.982L184.426 10.9665H183.842L183.395 9.63726H181.894ZM183.28 9.2018L182.868 7.98712C182.776 7.71209 182.707 7.45999 182.65 7.21934H182.638C182.581 7.47145 182.512 7.72355 182.421 7.98712L182.008 9.21326H183.28V9.2018Z" fill="black"/>
<path d="M190.545 6.73778V10.9548H189.995V7.19615H188.597V8.46813C188.597 9.38488 188.563 10.4048 187.967 10.8058C187.807 10.909 187.566 11.0006 187.325 11.0006L187.257 10.5652C187.428 10.5308 187.6 10.4391 187.703 10.336C188.036 10.0037 188.07 9.17861 188.07 8.50251V6.72632H190.545V6.73778Z" fill="black"/>
<path d="M194.51 6.73778V8.51397C194.51 9.17861 194.499 9.72866 194.465 10.3016L194.476 10.3131C194.694 9.87763 194.957 9.41926 195.255 8.91505L196.619 6.73778H197.169V10.9548H196.653V9.15569C196.653 8.46813 196.665 7.97538 196.699 7.4368L196.676 7.42534C196.47 7.88371 196.183 8.37646 195.897 8.84629L194.579 10.9433H193.995V6.72632H194.51V6.73778Z" fill="black"/>
<path d="M202.692 6.57764V6.95579C203.586 6.99017 204.468 7.52876 204.468 8.85804C204.468 10.1873 203.575 10.6915 202.681 10.7374V11.127H202.154V10.7374C201.271 10.6801 200.377 10.2102 200.377 8.88096C200.377 7.49438 201.351 7.00163 202.165 6.95579V6.57764H202.692ZM202.165 7.34541C201.615 7.37979 200.95 7.75795 200.95 8.85804C200.95 9.86646 201.546 10.2905 202.165 10.3592V7.34541ZM202.681 10.3477C203.288 10.3019 203.895 9.88938 203.895 8.84658C203.895 7.75795 203.277 7.37979 202.681 7.34541V10.3477Z" fill="black"/>
<path d="M208.193 6.73778V8.51397C208.193 9.17861 208.181 9.72866 208.147 10.3016L208.158 10.3131C208.376 9.87763 208.639 9.41926 208.937 8.91505L210.301 6.73778H210.851V10.9548H210.335V9.15569C210.335 8.46813 210.347 7.97538 210.381 7.4368L210.358 7.42534C210.152 7.88371 209.866 8.37646 209.579 8.84629L208.261 10.9433H207.677V6.72632H208.193V6.73778Z" fill="black"/>
<path d="M214.851 6.73804V8.6059H215.023L216.466 6.73804H217.12L215.527 8.67466C216.226 8.76633 216.489 9.19033 216.707 9.76329C216.867 10.1987 216.982 10.5884 217.165 10.9551H216.581C216.432 10.6686 216.317 10.2904 216.203 9.9581C216.008 9.3966 215.744 9.01844 215.023 9.01844H214.851V10.9551H214.312V6.73804H214.851Z" fill="black"/>
<path d="M220.924 9.63726L220.488 10.9665H219.927L221.359 6.74951H222.012L223.456 10.9665H222.872L222.425 9.63726H220.924ZM222.31 9.2018L221.898 7.98712C221.806 7.71209 221.737 7.45999 221.68 7.21934H221.669C221.611 7.47145 221.543 7.72355 221.451 7.98712L221.038 9.21326H222.31V9.2018Z" fill="black"/>
<path d="M227.123 6.73804V10.4967H229.06V6.73804H229.61V10.5082L229.977 10.5196L229.942 11.9635H229.507L229.473 10.9551H226.585V6.73804H227.123Z" fill="black"/>
<path d="M233.69 6.73778V8.51397C233.69 9.17861 233.678 9.72866 233.644 10.3016L233.655 10.3131C233.873 9.87763 234.136 9.41926 234.434 8.91505L235.798 6.73778H236.348V10.9548H235.832V9.15569C235.832 8.46813 235.844 7.97538 235.878 7.4368L235.855 7.42534C235.649 7.88371 235.363 8.37646 235.076 8.84629L233.758 10.9433H233.174V6.72632H233.69V6.73778Z" fill="black"/>
<path d="M240.313 6.73804V8.51423C240.313 9.17887 240.302 9.72892 240.267 10.3019L240.279 10.3133C240.497 9.87789 240.76 9.41951 241.058 8.9153L242.422 6.73804H242.972V10.9551H242.456V9.15595C242.456 8.46839 242.468 7.97564 242.502 7.43705L242.479 7.4256C242.273 7.88397 241.986 8.37672 241.7 8.84655L240.382 10.9551H239.798V6.73804H240.313Z" fill="black"/>
</svg>
