<svg width="26" height="26" viewBox="0 0 26 26" fill="none" xmlns="http://www.w3.org/2000/svg">
<path d="M26.0002 24.9168C26.0002 25.2041 25.886 25.4797 25.6829 25.6828C25.4797 25.886 25.2041 26.0001 24.9168 26.0001H1.08349C0.796174 26.0001 0.520624 25.886 0.31746 25.6828C0.114296 25.4797 0.000158919 25.2041 0.000158919 24.9168C0.000158919 24.6295 0.114296 24.3539 0.31746 24.1508C0.520624 23.9476 0.796174 23.8335 1.08349 23.8335H24.9168C25.2041 23.8335 25.4797 23.9476 25.6829 24.1508C25.886 24.3539 26.0002 24.6295 26.0002 24.9168ZM0.315409 9.26479C0.0819747 8.83181 -0.0261719 8.34234 0.00310605 7.85131C0.032384 7.36028 0.197928 6.88713 0.481159 6.48495C0.944022 5.80583 1.56389 5.2484 2.28816 4.85995L10.4142 0.630621C11.2129 0.215304 12.0999 -0.00152588 13.0002 -0.00152588C13.9004 -0.00152588 14.7874 0.215304 15.5861 0.630621L23.7111 4.8632C24.4353 5.25165 25.0552 5.80908 25.5181 6.4882C25.8013 6.89038 25.9669 7.36353 25.9961 7.85456C26.0254 8.34559 25.9173 8.83506 25.6838 9.26804C25.4325 9.74344 25.0556 10.1408 24.5941 10.4168C24.1326 10.6928 23.6042 10.8369 23.0665 10.8335H22.7502V19.5001H23.8335C24.1208 19.5001 24.3964 19.6143 24.5995 19.8174C24.8027 20.0206 24.9168 20.2961 24.9168 20.5835C24.9168 20.8708 24.8027 21.1463 24.5995 21.3495C24.3964 21.5527 24.1208 21.6668 23.8335 21.6668H2.16683C1.87951 21.6668 1.60396 21.5527 1.40079 21.3495C1.19763 21.1463 1.08349 20.8708 1.08349 20.5835C1.08349 20.2961 1.19763 20.0206 1.40079 19.8174C1.60396 19.6143 1.87951 19.5001 2.16683 19.5001H3.25016V10.8335H2.93383C2.39558 10.8368 1.86675 10.6923 1.40501 10.4157C0.943278 10.1391 0.566373 9.74096 0.315409 9.26479ZM5.41683 19.5001H8.66683V10.8335H5.41683V19.5001ZM10.8335 10.8335V19.5001H15.1668V10.8335H10.8335ZM20.5835 10.8335H17.3335V19.5001H20.5835V10.8335ZM2.23508 8.26054C2.30305 8.38586 2.4042 8.49005 2.52745 8.56171C2.6507 8.63336 2.79129 8.66972 2.93383 8.66679H23.0665C23.209 8.66972 23.3496 8.63336 23.4729 8.56171C23.5961 8.49005 23.6973 8.38586 23.7652 8.26054C23.8148 8.17773 23.8387 8.08214 23.8341 7.98578C23.8294 7.88941 23.7965 7.79655 23.7392 7.71887C23.4768 7.32878 23.1241 7.00771 22.7112 6.78287L14.5862 2.55029C14.0965 2.29616 13.5529 2.16351 13.0012 2.16351C12.4496 2.16351 11.906 2.29616 11.4163 2.55029L3.29133 6.78287C2.87856 7.00843 2.52598 7.3298 2.26324 7.71995C2.20592 7.79731 2.17268 7.88985 2.16767 7.986C2.16266 8.08215 2.1861 8.17764 2.23508 8.26054Z" fill="white"/>
</svg>
