<svg width="12" height="36" viewBox="0 0 12 36" fill="none" xmlns="http://www.w3.org/2000/svg">
<path d="M10.3429 35.229C10.0777 35.2289 9.82342 35.0741 9.63593 34.7987L1.46393 22.7971C0.526577 21.42 0 19.5526 0 17.6055C0 15.6583 0.526577 13.7909 1.46393 12.4139L9.63593 0.412261C9.82453 0.144739 10.0771 -0.00329063 10.3393 5.55179e-05C10.6015 0.00340167 10.8523 0.157856 11.0377 0.430151C11.2232 0.702446 11.3283 1.0708 11.3306 1.45587C11.3329 1.84094 11.2321 2.21191 11.0499 2.4889L2.87793 14.4905C2.31552 15.3167 1.99957 16.4372 1.99957 17.6055C1.99957 18.7738 2.31552 19.8942 2.87793 20.7204L11.0499 32.7221C11.1897 32.9274 11.2849 33.1891 11.3235 33.4739C11.3621 33.7588 11.3423 34.054 11.2666 34.3224C11.1909 34.5907 11.0628 34.82 10.8984 34.9814C10.734 35.1428 10.5407 35.2289 10.3429 35.229Z" fill="white"/>
</svg>
